<?xml version="1.0" encoding="utf-8"?>
<!-- Generator: Adobe Illustrator 18.1.1, SVG Export Plug-In . SVG Version: 6.00 Build 0)  -->
<svg version="1.1" id="Layer_1" xmlns="http://www.w3.org/2000/svg" xmlns:xlink="http://www.w3.org/1999/xlink" x="0px" y="0px"
	 viewBox="0 0 500 400" enable-background="new 0 0 500 400" xml:space="preserve">
<g>
	<path fill="#D1462F" d="M407.6,42.2c-11.1-19.4-31.2-29.3-50.9-29.3c-6.7,0-61.3-1.7-94.3-1.7c-14.6,0-24.9,0-24.9,0
		c-32.9,0-87.5,1.7-94.3,1.7c-19.7,0-39.8,9.9-50.9,29.3C55,107.8,4.7,181.5,4.7,223.6c0,122.9,6,127.6,33.9,146.9
		c22,15.2,137.3,17.8,199,18.2v0.1c3.6,0,7.8,0,12.5,0c4.7,0,8.9,0,12.5,0v-0.1c61.6-0.4,177-3,199-18.2
		c27.9-19.3,33.9-24,33.9-146.9C495.3,181.5,445,107.8,407.6,42.2z"/>
	<path opacity="0.6" fill="#2D2675" d="M250,35.5H112L55.5,129c0,0-4.9,16,8.4,16s373.1,0,377.3,0c5.6,0,9.8-7,2.1-20.9
		s-48.8-88.6-48.8-88.6H250z"/>
	<path opacity="0.38" d="M372.2,255.9H255.7H139.2c-8.4,0,0,19.5,0,19.5s7.7,3,116.5,3c108.8,0,116.5-3,116.5-3
		S380.5,255.9,372.2,255.9z"/>
	<path fill="#FFFFFF" d="M115.5,273.3c0-18.8,4.2-33.5-39.8-57.2S27,211.3,27,244.8C49.3,267.1,115.5,273.3,115.5,273.3z"/>
	<path fill="#FFFFFF" d="M396,273.3c0-18.8-4.2-33.5,39.8-57.2s48.8-4.9,48.8,28.6C462.2,267.1,396,273.3,396,273.3z"/>
	<path opacity="0.38" d="M256.7,316.6h-2H144.4c5.6,28.6,9.1,50.9,22.3,50.9c13,0,68.6,1.9,88.3,2v0c0.2,0,0.4,0,0.7,0
		c0.2,0,0.4,0,0.7,0v0c19.7-0.1,75.4-2,88.3-2c13.3,0,16.7-22.3,22.3-50.9H256.7z"/>
	<path opacity="0.38" d="M115.6,361.8c-16.8,0-61-5.8-73.9-15.4s-8.3-8.3-8.3-12.2c17.3,10.2,36.2,18.6,82.2,18.6V361.8z"/>
	<path opacity="0.38" d="M115.6,348c-16.8,0-57-2.8-69.9-12.4c-12.8-9.6-8.3-8.3-8.3-12.2c17.3,10.2,32.2,15.6,78.2,15.6V348z"/>
	<path opacity="0.38" d="M397.9,361.8c16.8,0,61-5.8,73.9-15.4c12.8-9.6,8.3-8.3,8.3-12.2c-17.3,10.2-36.2,18.6-82.2,18.6V361.8z"/>
	<path opacity="0.38" d="M397.9,348c16.8,0,57-2.8,69.9-12.4c12.8-9.6,8.3-8.3,8.3-12.2c-17.3,10.2-32.2,15.6-78.2,15.6V348z"/>
</g>
</svg>
