<?xml version="1.0" encoding="utf-8"?>
<!-- Generator: Adobe Illustrator 18.1.1, SVG Export Plug-In . SVG Version: 6.00 Build 0)  -->
<svg version="1.1" id="Layer_1" xmlns="http://www.w3.org/2000/svg" xmlns:xlink="http://www.w3.org/1999/xlink" x="0px" y="0px"
	 viewBox="0 0 395.9 381.4" enable-background="new 0 0 395.9 381.4" xml:space="preserve">
<path fill="#8E8A8A" d="M0,372c1-11,2.6-24.6,5.4-27.5c2.9-2.9,4.8-5.3,2.4-12c-2.4-6.7-1.9-11.5,4.3-21.1s8.6-14.4,7.2-21.6
	c-1.4-7.2,5.3-22,8.6-28.8c3.4-6.7,6.7-13.9,5.8-20.6c-1-6.7,4.3-21.6,6.2-26.8s6.7-4.3,9.6-5.8c2.9-1.4,5.8-6.2,11-8.1
	s10.1-1.4,15.3-2.9c5.3-1.4,13.4-6.2,18.2-7.7c4.8-1.4,10.5-1,14.9-2.9c4.3-1.9,16.8-7.7,20.6-9.1c3.8-1.4,15.8-5.8,20.1-8.6
	c4.3-2.9,6.2-1.9,7.7,3.8c1.4,5.8,84.8,5.3,85.3,0c0.5-5.3,6.7-12.5,7.7-14.9c1-2.4,2.9,0,7.2,2.4c4.3,2.4,7.7,8.1,10.1,10.1
	c2.4,1.9,8.1,1.9,18.2,5.8c10.1,3.8,27.3,9.6,35.9,12.9s13.9,7.7,19.7,8.6s19.7,7.2,21.1,10.1c1.4,2.9,4.3,1.9,7.7,4.8
	c3.4,2.9,7.2,5.8,7.2,13.9s1,12.9,2.9,17.7s5.3,13.9,3.8,22.5c-1.4,8.6,0,12.5,3.4,19.7s1.4,7.7,1,14.4c-0.5,6.7,3.8,12.9,5.8,19.2
	c1.9,6.2,2.9,11,0,23.5c-2.9,12.5-2.6,13.9-0.6,23.5c2,9.6,2.4,14.9,2.4,14.9H0V372z"/>
<path fill="#8AA6BA" d="M153.9,173.1c-0.4,13-0.7,15.5,3.9,33.9c4.6,18.3,3.2,25.4,5.3,31.4c2.1,6,6.3,26.5,9.2,36.3
	c2.8,9.9,3.2,31.4,7.8,42.7c4.6,11.3,27.5,45.5,28.6,43.4c6.3-18,11.3-35.3,12-41.6c0.7-6.3,4.6-10.6,4.6-24.7
	c0-14.1,1.4-16.5,5.3-27.5c3.9-11,2.8-17,6.3-28.3c3.5-11.3,9.5-31,13-43s2.1-36.6,0-37c-4.2,8.6-6.9,20.4-20.6,32.2
	c-23.4,20-40.4,14.3-51.7,5.9c-11.1-8.3-18.3-15.2-19-27.2S153.9,173.1,153.9,173.1z"/>
<path fill="#657E8E" d="M200.4,209.4c-8,1.3-21.5,9.2-27.9,15.9c9.2,6.3,32.1,1.4,40.6-3.9c11.6,6.7,13.8,8.5,14.8,8.5
	s5.6,3.5,6.7,2.1c-8.8-7.8-18.3-16.9-21.5-18.7c-3.2-1.8-5.3-1.1-6.7-0.4C205,213.7,204,208.8,200.4,209.4z"/>
<path fill="#6F936F" d="M202.8,209.9c-4.1-0.1-10.2,1.1-17.1,5.6c0.3,10.2-0.4,26.4-2.9,32.8c-2.5,6.3-10.7,15.9-11.2,24.4
	c-0.5,8.4-1.2,22.9,9,50.7c10.2,27.9,5.1,31.7,7.5,37.4s7,13.4,9.8,15.5c2.8,2.1,4.2,3.2,7.4-4.9s13-25.9,13-34.2
	c0.1-8.3-1.4-22.9,0-30.7c1.4-7.8-4.6-28.9-6.7-37.4c-2.1-8.5-13.4-15.2-11.3-21.5s11.3-19.8,14.4-25.1s1.1-8.1-1.7-9.1
	C210.2,212.3,202.8,209.9,202.8,209.9z"/>
<path fill="#FFFFFF" d="M213.1,213.3c-2.6-0.9-8.9-3-10.1-3.3c-6.1,3.6-12.1,8-17.3,12.4c-0.1,7.1-0.6,15.1-1.6,20.9
	c6.2-7.2,20.4-19,32.2-24.4C216.9,215.8,215.2,214.1,213.1,213.3z"/>
<path fill="#4B526D" d="M209.5,212.1c-8.5,4.4-17.2,11-24,17c-0.1,2-0.2,3.9-0.4,5.8c7.6-7.3,19.2-16.3,29.5-20.9
	c-0.4-0.3-1-0.6-1.5-0.8C212.2,213,210.9,212.5,209.5,212.1z"/>
<path fill="#FFFFFF" d="M196.8,273.5c-8.3-7.8-12.6-15.6-15-22.9c-2.3,4.4-6.2,10-8.4,15.5c3.2,5.8,7.7,11.8,13.9,17.6
	c12.4,11.7,23.2,26,30.8,38.6c-0.2-5.9-0.3-11.8,0.5-15.8c0.4-2.1,0.2-5.2-0.3-8.8C211.5,288.9,204.2,280.5,196.8,273.5z"/>
<path fill="#4B526D" d="M193.3,277.1c-7.4-7-12-14.2-14.8-20.9c-0.8,1.4-1.7,2.8-2.5,4.3c3,6.4,7.6,13,14.6,19.6
	c9.7,9.2,19.5,21,27.3,32.7c0.1-2.4,0.2-4.5,0.6-6.3C211,295.9,202.2,285.5,193.3,277.1z"/>
<path fill="#FFFFFF" d="M218.1,339.6c-8.8-14.6-20.9-30.1-33.4-41.9c-6.6-6.3-10.7-12.5-13.4-18.5c0,6.7,0.7,16,4.5,29.4
	c15.8,15.1,28.9,34.2,35.8,48.5C214.6,351,217.3,344.4,218.1,339.6z"/>
<path fill="#4B526D" d="M216.3,346.3c-8.6-15.3-21.6-32.3-34.9-44.9c-3.7-3.5-6.8-7.1-9.2-10.6c0.3,2.5,0.8,5.3,1.4,8.3
	c1.5,1.7,3.2,3.5,5,5.2c13.7,13,27.4,31.2,35.8,46.9C215,349.5,215.7,347.9,216.3,346.3z"/>
<path fill="#FFFFFF" d="M186,335.2c-0.7-0.7-1.4-1.4-2.1-2.1c4.2,14.1,3.4,19.8,3.5,23.7c5.7,6.5,10.8,13.3,15.2,19.8
	c0.8-1,1.7-2.6,2.8-5.4c0.9-2.4,2.4-5.6,4.1-9.2C202.4,352.4,194.3,343,186,335.2z"/>
<path fill="#4B526D" d="M186.3,342.5c0.5,2.7,0.8,4.9,1,6.8c6.4,6.9,12.5,14.6,17.9,22.4c0.1-0.1,0.1-0.2,0.2-0.4
	c0.5-1.2,1-2.5,1.7-4C200.8,358.5,193.7,349.9,186.3,342.5z"/>
<path fill="#E2D1C5" d="M256.7,131.1c-3.8,20.6-14.1,50.2-31.7,63.1c-17.6,12.9-35.4,13.1-48.4,1.4c-13-11.7-17.5-10.7-23.9-37.8
	s-8.4-15.8-16.8-25.1s-9.9-39-9.4-43.9c0.5-4.9-0.5-7.4,2-8.9c-1-8.9,8.9-56.2,37.5-54.7c28.6,1.5,51.3,2.4,57.2,0
	s35.5,3.5,36.5,28.6s3.5,24.7,2.5,31.6c4.9-1.5,13.3,4.4,7.9,25.6C264.6,132.1,265.1,136.5,256.7,131.1z"/>
<path fill="#63554C" d="M142.3,101.5c0.5,10.8,3,23.7-4.4,6.9c-2.5,3.9-3.4,14.3-6.3-10S127,75.4,129,52.2s2.6-23.2,14.1-35.5
	s15.3-17.8,29.5-15.8s9.2-0.9,21-0.9c11.8,0,16.1,4.9,22.8,3.9c6.7-1,19.6-9.4,27.9,7.4c8.4,16.8,9.4,6.9,14.8,16.3
	s7.4,6.2,6.4,26.3s0.5,22.4,0.2,27c-0.3,4.6-0.3,4.6-0.3,4.6c-3.4-0.1-4.9,4.8-4.9,14.7s-4.4,30.6-3,0.5c0,0-2.5-12.8-3.5-20.2
	c-1-7.4-7.4-18.2-4.9-31.1c-6.9-8.4-11.3-13.8-25.9-8.4c-14.6,5.4-35.4,12.3-50.9,3.9s-17.4-9.9-25.8,4.9c-8.4,14.8-0.5,27.1,0.5,33
	C142.8,90.2,142.3,101.5,142.3,101.5z"/>
<g>
	<path fill="#63554C" d="M216.4,100.6c-0.7,0-1.3-0.3-1.7-0.9c-0.6-0.9-0.3-2.2,0.6-2.8c7.5-4.8,16.7-9.5,30.2-4.6
		c1,0.4,1.6,1.5,1.2,2.6c-0.4,1-1.5,1.6-2.6,1.2c-11.8-4.3-19.4-0.4-26.7,4.2C217.2,100.4,216.8,100.6,216.4,100.6z"/>
</g>
<g>
	<path fill="#63554C" d="M188.3,102.6c-0.4,0-0.7-0.1-1.1-0.3c-7.3-4.7-14.9-8.5-26.7-4.2c-1,0.4-2.2-0.2-2.6-1.2
		c-0.4-1,0.2-2.2,1.2-2.6c13.5-4.9,22.7-0.2,30.2,4.6c0.9,0.6,1.2,1.8,0.6,2.8C189.6,102.2,188.9,102.6,188.3,102.6z"/>
</g>
<g>
	<path fill="#63554C" d="M181.5,106.9c-0.2,0-0.4-0.1-0.5-0.2c-3.7-2.4-7.5-4.3-13.4-2.1c-0.5,0.2-1.1-0.1-1.3-0.6
		c-0.2-0.5,0.1-1.1,0.6-1.3c6.8-2.5,11.4-0.1,15.2,2.3c0.5,0.3,0.6,0.9,0.3,1.4C182.2,106.8,181.8,106.9,181.5,106.9z"/>
</g>
<g>
	<path fill="#63554C" d="M221.8,105.8c0.2,0,0.4-0.1,0.5-0.2c3.7-2.4,7.5-4.3,13.4-2.1c0.5,0.2,1.1-0.1,1.3-0.6
		c0.2-0.5-0.1-1.1-0.6-1.3c-6.8-2.5-11.4-0.1-15.2,2.3c-0.5,0.3-0.6,0.9-0.3,1.4C221.2,105.6,221.5,105.8,221.8,105.8z"/>
</g>
<circle fill="#63554C" cx="174" cy="106.2" r="3.7"/>
<circle fill="#63554C" cx="229" cy="105.2" r="3.7"/>
<path fill="#63554C" d="M192.9,145.2c-2.3-1.5-11.6-2.5-2.4,1.6c3,1.3,5.1,2.7,8.6,2.7s8.2,0.7,13.5-3.3c5.4-4,1-5.1-2.5-2.1
	C206.7,147,199.5,149.6,192.9,145.2z"/>
<path fill="#63554C" d="M199.1,167.2c-7.6,0-9.5-0.3-15-1.5c-5.5-1.3-9.8-3,1.9-2.5c11.6,0.5,7.8-0.1,13.9-0.1s13.4-0.3,16.6,0
	c3.2,0.3,10.5,3.1,0,4.1S199.1,167.2,199.1,167.2z"/>
</svg>
