<?xml version="1.0" encoding="utf-8"?>
<!-- Generator: Adobe Illustrator 18.1.1, SVG Export Plug-In . SVG Version: 6.00 Build 0)  -->
<svg version="1.1" id="Layer_1" xmlns="http://www.w3.org/2000/svg" xmlns:xlink="http://www.w3.org/1999/xlink" x="0px" y="0px"
	 viewBox="0 0 160 400" enable-background="new 0 0 160 400" xml:space="preserve">
<g>
	<path fill="#F2F2F2" d="M130.6,226.5c-5.2-11.6-3.9-18.5-2.8-22.6s4.9-13.8-1.9-30.6c-6.9-16.8-28.9-26-25.2-45.8
		c3.7-19.8,9.3-23.7,11.1-46.9c1.9-23.2-9.6-38.1-14.6-52.3c0,0-3-8.4-3-11.6c0-3.2-3.6-8.4-14.2-8.4V8c0,0,0,0,0,0s0,0,0,0v0.3
		c-11,0-14.2,5.2-14.2,8.4c0,3.2-3,11.6-3,11.6c-5,14.2-16.5,29-14.6,52.3c1.9,23.2,7.5,27.1,11.1,46.9c3.7,19.8-18.3,29-25.2,45.8
		c-6.9,16.8-3,26.5-1.9,30.6s2.4,11-2.8,22.6c-5.2,11.6-17.2,40.9-8.2,66.3c9,25.4,14.3,31.6,13,38.5c-1.3,6.9-10.2,34.6,45.8,34.6
		v0.1c0,0,0,0,0,0s0,0,0,0v-0.1c56.1,0,47.1-27.6,45.8-34.5c-1.3-6.9,3.9-13.2,12.9-38.6C147.8,267.4,135.7,238.1,130.6,226.5z"/>
	<path fill="#FFFFFF" stroke="#000000" stroke-miterlimit="10" d="M89,86.1"/>
	<path fill="#A67C52" d="M54.8,46.5c-4.1,9.5-7.7,20.3-6.6,34.1c0.6,8.1,1.8,13.8,3.1,18.7c7.6-10.7,7.7-8,15.6-21.9
		C75.1,62.8,68.3,52.4,54.8,46.5z"/>
	<path fill="#E6E6E6" d="M95.3,74.2c-6.3,0-11.9-2.6-15.3-7c-3.4,4.4-9,7-15.3,7c-4.5,0-8.8-1.4-11.7-3.7L52.4,70l0.3-0.7
		c2.1-4.7,8.8-9.1,16.1-9.1c4.1,0,8,2.1,11.2,4c3.2-2,7.1-4,11.2-4c7.3,0,13.9,4.3,16.1,9.1l0.3,0.7l-0.6,0.5
		C104.1,72.8,99.8,74.2,95.3,74.2C95.3,74.2,95.3,74.2,95.3,74.2z"/>
	<path fill="#FFFFFF" d="M80,65.5c-9.3-6.3-23.2-2.7-26.3,4.2C60.1,75,74,74.8,80,65.5c6,9.3,19.8,9.5,26.3,4.2
		C103.2,62.8,89.3,59.2,80,65.5z"/>
	<path fill="#FFFFFF" d="M53.6,69.7c3.1-6.9,17-10.5,26.4-4.2C74,74.8,60.1,75,53.6,69.7z"/>
	<path fill="#B3B3B3" d="M50.2,100.8C38.6,94,30.9,91.3,30.3,76.1s11.8-26.9,14.8-29.9s6.5-4.3,1.1,3.7S37.4,75,44.9,79.5
		c0,0,6.1,3.2,11.1,4.1c5,0.9,7.4,5.8,6.3,9.9C61.3,97.6,56.3,104.3,50.2,100.8z"/>
	<path fill="#A67C52" d="M100.2,35.7c-1.1-2.5-2.2-5-3-7.4c0,0-3-8.4-3-11.6C84.3,20.5,87.5,37.5,100.2,35.7z"/>
	<path fill="#B3B3B3" d="M109.7,100.8c11.6-6.8,19.3-9.5,19.9-24.7s-11.8-26.9-14.8-29.9s-6.5-4.3-1.1,3.7s8.8,25.2,1.3,29.7
		c0,0-6.1,3.2-11.1,4.1c-5,0.9-7.4,5.8-6.3,9.9C98.6,97.6,103.6,104.3,109.7,100.8z"/>
	<path fill="#FF7BAC" d="M80,6.1c-4.9,0-16.8,2.2-14.2,10.5c2.6,8.4,10.1,4.1,14.2,4.1c5,0,11.6,4.3,14.2-4.1
		C96.8,8.3,85,6.1,80,6.1z"/>
	<ellipse cx="74.5" cy="13.5" rx="1.8" ry="4.6"/>
	<ellipse cx="85.5" cy="13.5" rx="1.8" ry="4.6"/>
	<path d="M61.4,63.5c1.1,0.8,3,1.3,5.2,1.3c3,0,5.4-1,6-2.2C68.7,61.9,64.7,62.3,61.4,63.5z"/>
	<path fill="#FFFFFF" d="M106.3,69.7c-3.1-6.9-17-10.5-26.4-4.2C85.9,74.8,99.8,75,106.3,69.7z"/>
	<path fill="#FF7BAC" d="M108.8,76.7c0-12.3-12.5-8.8-16.8-8.8s-6.7-0.8-8.3-1.4c-1.6-0.7-2.4-1.1-3.7-1.1V65c0,0,0,0,0,0s0,0,0,0
		v0.3c-1,0-2.1,0.5-3.7,1.1c-1.6,0.7-4,1.4-8.3,1.4s-16.8-3.5-16.8,8.8C51.2,89,70.5,89.9,80,89.9l0,0.1c0,0,0,0,0,0s0,0,0,0v0
		C89.5,90,108.8,89,108.8,76.7z"/>
	<path d="M98.6,63.5c-1.1,0.8-3,1.3-5.2,1.3c-3,0-5.4-1-6-2.2C91.3,61.9,95.2,62.3,98.6,63.5z"/>
	<path fill="#FCEE21" d="M105.6,88.5c-1.9-3.9-2.8-9-0.9-11.2c-4.5,0.9-5.2,1.7-6,3.2c2.4-5.8,0.2-6.2,3-7.7
		c-4.7,0.9-7.3,1.9-8.6,4.5c2.8-6.7,2.2-5.4,4.9-6.7C92.2,69,87.5,72.6,86.4,75c1.7-4.5,3.4-6.5,4.3-7.1c-4.5,0.9-8.1,1.9-10.7,6.2
		c-2.6-4.3-6.2-5.4-10.7-6.2c0.9,0.6,2.6,2.6,4.3,7.1c-1.1-2.4-5.8-6-11.6-4.3c2.8,1.3,2.2,0,4.9,6.7c-1.3-2.6-3.9-3.7-8.6-4.5
		c2.8,1.5,0.6,1.9,3,7.7c-0.9-1.5-1.5-2.4-6-3.2c1.9,2.2,1.1,7.3-0.9,11.2c-1.9,3.9-7.5,9.3-1.3,15.5c6.2,6.2,19.1-3.2,26.9-3.2
		c7.7,0,20.6,9.5,26.9,3.2C113.1,97.8,107.5,92.4,105.6,88.5z"/>
	<path fill="#8C6239" d="M61.4,243.9c-7.1-5.5-12.6-16.4-1-39.3s3.6-42.5-13.9-48.3c-4.8,5.2-9.7,10.6-12.3,17
		c-6.9,16.8-3,26.5-1.9,30.6s2.4,11-2.8,22.6c-5.2,11.6-17.2,40.9-8.2,66.3c22.6-0.3,28.7-6.3,38.7-15
		C69.9,269,68.5,249.3,61.4,243.9z"/>
	<path fill="#FFFFFF" d="M82.4,385.6h-4.3l-1.9-30c0,0,0.6-3,4-3c3.4,0,4,3,4,3L82.4,385.6z"/>
	<path fill="#A67C52" d="M80,381.4c2.7,0,4.1,2.5,3.7,5.2s-2.3,2.3-1.8,4.6c0.5,2.3-0.7-2.7-1.3-3.6c-0.1,0.9,0.1,4.8,1.3,6.3
		c-2.2-1.9-3.2-4.6-3.2-6c-0.6,1.6-0.4,2.6,0.1,3.9c-2-2.4-2.4-4.7-1.9-7.4C77.5,381.6,80,381.4,80,381.4z"/>
	<path fill="#A67C52" d="M115.6,247.2c5.1,32.7-8.2,34.3-16,57.6s4.3,40.1,23.9,47.7c5.8-8.1,3-17.6,2.3-21.2
		c-1.3-6.9,3.9-13.2,12.9-38.6c9-25.4-3-54.7-8.2-66.3c-5.2-11.6-3.9-18.5-2.8-22.6C119.7,201.8,110.5,214.5,115.6,247.2z"/>
</g>
</svg>
