<?xml version="1.0" encoding="utf-8"?>
<!-- Generator: Adobe Illustrator 18.1.1, SVG Export Plug-In . SVG Version: 6.00 Build 0)  -->
<svg version="1.1" id="Layer_1" xmlns="http://www.w3.org/2000/svg" xmlns:xlink="http://www.w3.org/1999/xlink" x="0px" y="0px"
	 viewBox="0 94.5 800 411.5" enable-background="new 0 94.5 800 411.5" xml:space="preserve">
<g>
	<path fill="#FFFFFF" d="M79.4,190.4l18.9-0.4v8.7c-5.7,0.9-8.5,1.5-12.3,1.7c-0.6,0-1.5,0-2.1,0c-7.2,0-13.6-1.3-18.7-4.2
		c-5.5-2.8-9.6-7-12.5-11.9c-2.8-5.1-4.2-10.8-4.2-16.8c0-5.3,1.3-10.8,3.8-16.5c2.5-5.5,6.6-10.2,12.9-14.2c6.1-4,14.6-6.1,25-6.1
		c9.1,0,16.6,1.1,22.5,3.2c6.1,2.3,11.9,5.1,17.4,8.3l5.9,3.6v-40.5l-2.6-0.9c-8.5-2.8-16.6-5.3-24-7c-7.6-1.9-17.2-2.8-28.6-3h-1.5
		c-6.4,0-12.5,0.4-18,1.1c-6.1,0.8-12.3,2.5-18.7,5.1c-6.4,2.6-12.9,6.4-19.1,11.3c-7.9,6.1-14,14.4-17.8,24.6
		c-3.8,10-5.7,20.4-5.7,30.8c0,16.3,3.8,30.1,11.2,41s17.2,18.9,29.3,23.8c10.6,4.3,22.1,6.4,34.2,6.4c1.3,0,2.6,0,4.2,0
		c6.6-0.2,13-0.9,18.9-1.9c5.9-0.9,11.7-2.3,17.8-4c3.4-1.1,6.1-1.9,7.9-2.5c1.9-0.6,3.6-1.3,5.7-2.1c1.9-0.8,4.2-1.7,7-2.8l2.3-0.9
		v-69.2l-58.6,0.8v34.2H79.4z"/>
	<path fill="#FFFFFF" d="M382.8,133.9c-4.7-3.2-10.6-4.7-17.4-4.7c-6.8,0-13,1.7-18.3,4.9c-3.8,2.3-7.4,5.5-11,9.3
		c-0.8-1.3-1.5-2.5-2.5-3.6c-2.3-2.6-4.7-4.7-7.4-6.2c-2.6-1.5-5.5-2.5-8.3-3c-2.6-0.6-5.5-0.6-8.5-0.6l0,0
		c-6.4,0-12.5,0.9-17.4,3.6c-2.6,1.3-4.2,2.8-7.9,4.9v-7.6l-35.9,0.2v67.7l-5.7,3.2c-2.8,1.7-4.5,2.3-5.3,2.3
		c-0.2-0.8-0.4-2.5-0.4-6.1v-35.7c0-10.2-3.8-18.2-10.8-24c-6.8-5.7-17.2-8.3-30.4-8.3h-0.8c-5.1,0-10.4,0.4-15.5,1.3
		c-5.1,0.9-10.2,2.3-14.9,4.3c-4.9,2.1-9.5,4.7-13.6,7.9l-1.3,0.9v37.3l6.4-6.8c4.7-4.9,9.8-8.9,15.3-12.1c5.3-3,11-4.5,17.2-4.5
		h0.4c4,0,6.6,0.8,7.6,2.1c0.9,1.5,1.7,3.6,1.9,6.2c-0.4,0.2-0.8,0.4-0.9,0.4c-1.1,0.4-2.6,1.1-4.7,1.9c-2.3,0.8-5.5,1.9-9.6,3.6
		c-7.8,2.8-14.2,5.5-18.9,8.1c-5.1,2.8-9.3,6.4-12.5,10.8c-3.2,4.5-4.9,10.2-4.9,16.8c0,4.3,0.9,8.7,2.8,12.7
		c1.9,4.3,5.3,7.9,10,10.6c4.2,2.3,9.5,3.6,15.7,3.6c0.8,0,1.3,0,2.1,0c7.2-0.2,13-1.5,17.6-3.8c2.8-1.3,5.5-3,7.9-4.9
		c0.8,1.3,1.9,2.5,3,3.6c2.5,2.5,6.4,3.6,11.7,3.6c0.6,0,0.9,0,1.5,0c5.7-0.2,10.6-1.1,14.6-2.5c3.8-1.3,7.9-3,12.5-5.1l2.3-0.9v5.9
		l35.9-1.3v-56.4c1.9-0.8,1.7-1.9,2.8-3.4c1.5-2.3,3.2-3.8,4.2-4.9c0.8-0.9,2.1-1.7,3.4-2.5c1.3-0.8,2.6-0.9,4.3-0.9
		c3.8,0,5.1,1.5,5.7,2.8c1.5,2.6,2.3,6.8,2.3,12.3v51.8l35.9-1.3v-54.8c1.9-3.4,3.8-6.2,5.9-8.7c1.7-1.9,3.4-2.8,6.2-2.8
		c2.5,0,3.8,0.8,4.9,2.6c0.9,1.7,1.7,5.1,1.7,12.1v50.9l35.9-1.3v-56.7c0-7.9-1.5-14.8-3.6-20.4
		C391.3,141.6,387.5,137.1,382.8,133.9z M198.6,204.2c-1.9,1.3-3.2,2.5-4.7,3.4c-1.5,0.9-3.2,1.5-4.7,1.5c-1.1,0-2.1-0.4-3-1.3
		c-0.9-0.9-1.3-2.3-1.3-4.3c0-3.2,1.3-5.7,3.8-7.6c2.3-1.7,6.2-3.8,10-6.1L198.6,204.2L198.6,204.2z"/>
	<path fill="#FFFFFF" d="M462,133.5c-5.9-3.2-12.1-4.9-18.7-4.9c-9.6,0-18,2.1-24.8,6.4c-7,4.2-12.3,10.2-15.7,17.6
		c-3.4,7.2-5.1,15.5-5.1,24.6c0,9.1,1.7,17.4,5.1,24.6c3.4,7.4,8.9,13.2,15.9,17.2c6.4,3.8,14,5.7,22.5,5.7c0.8,0,1.5,0,2.5,0
		c8.5-0.4,15.7-1.7,21.4-3.8c5.5-2.1,10-4.5,14-7l1.7-1.1v-25.9h1.9v-9.6c0-11.2-1.9-20.4-5.5-27.6C473,142.2,468.1,136.9,462,133.5
		z M434.6,158.4c1.9-2.5,4.3-3.6,7.6-3.6l0.4-3.8v3.8c1.9,0,4.7,0.9,6.2,3.2c1.3,1.9,1.9,4.2,2.3,7.2l-19.5,0.4
		C432,162.6,433.1,160.3,434.6,158.4z M474.9,188.9c-9.6,5.7-18.3,8.5-26.3,8.9H448c-3.8,0-7-1.1-10-3.8c-2.1-1.7-3.6-3.6-4.7-6.1
		l45-1.1L474.9,188.9z"/>
	<path fill="#FFFFFF" d="M656.5,129.3l-11,32.7l-10-32.5l-31,0.2c-1.9-4.3-4.3-8.5-7.2-12.1c-4.3-5.5-10-9.8-16.8-13
		c-6.8-3.2-14.8-4.7-23.5-4.7H556c-11.5,0-21.7,2.5-29.9,7.9c-8.5,5.7-14.9,13-18.9,22.5c-4,9.3-6.1,19.5-6.1,30.1
		s2.1,20.6,6.1,29.9c4.2,9.5,10.6,17,18.9,22.5c7.8,5.1,17.2,7.8,28,7.8c0.9,0,1.9,0,2.6,0c11.5-0.4,21.6-3.6,29.5-9.3
		c7.9-5.7,14-13.2,18-22.5c4-9.1,5.9-18.9,5.9-29.5c0-4.9-0.6-9.6-1.3-14.2l25.2,71.3l21.4-0.8l29.9-85.9L656.5,129.3z M573.6,172.2
		c-1.5,3.6-3.6,6.4-6.6,8.5c-2.8,2.1-6.2,3.2-10.4,3.2h-0.8c-5.7,0-10-2.1-13.4-6.1c-3.6-4.5-5.5-10.6-5.5-18.3
		c0-7.6,1.7-13.8,5.5-18.5c3.4-4.3,7.9-6.4,14-6.4c3.6,0,6.1,0.6,8.3,1.7c2.3,1.1,4.7,2.6,6.2,4.7c1.7,2.1,2.8,4.7,3.8,7.6
		c0.9,3,1.3,6.4,1.3,10.2C575.9,164.1,575.1,168.5,573.6,172.2z"/>
	<path fill="#FFFFFF" d="M798.1,133.5c-2.5-1.9-4.3-3.4-6.2-4.3c-2.1-1.1-4.5-1.7-7.2-1.7c-5.1,0-9.3,2.5-13,7.4v-6.1l-28.4,0.2
		v25.7c-0.8-2.8-1.7-5.5-2.8-7.9c-3-6.6-7.4-11.5-12.1-14.6c-4.9-3-10-4.5-15.3-4.5c-7.8,0-14.8,1.9-20.2,5.9
		c-5.7,3.8-10,9.1-12.7,15.9c-2.6,6.4-4.2,13.8-4.2,21.9s1.3,15.5,4.2,21.9c2.8,6.6,7.2,11.9,12.9,15.7c5.3,3.4,11.5,5.3,18.7,5.3
		c0.6,0,1.1,0,1.7,0c7-0.2,12.9-1.5,17.4-3.4c4.3-1.9,8.1-4,11.3-6.2l1.5-1.1v8.3l28.4-0.9v-35.4c1.9-7.6,3.4-10.8,4.5-12.1
		c1.7-2.1,2.8-2.5,3.8-2.5c2.1,0,4.2,2.3,5.7,4l4.7,6.1l9.6-35.9L798.1,133.5z M706.4,154.8c1.3-1.9,2.8-2.8,4.9-3
		c1.9,0,3.6,0.8,4.7,2.5c0.9,1.5,1.9,3.6,2.3,5.9l-14,0.2C704.7,158.3,705.2,156.4,706.4,154.8z M737.4,181.7
		c-7.6,4.9-14.4,7.4-20.4,7.6h-0.4c-2.8,0-5.1-0.9-7.4-3c-1.5-1.3-2.6-3-3.4-4.7l33.3-0.8L737.4,181.7z"/>
</g>
<rect x="58.4" y="307.8" fill="none" width="697.7" height="297.1"/>
<g enable-background="new    ">
	<path fill="#3D261F" d="M74.9,307.8l9.4,12.9l9.5-12.9h8.9L88,327.3v19.2h-7.5v-19.2l-14.7-19.5H74.9z"/>
	<path fill="#3D261F" d="M113.5,320.1c2.7,0,5.1,0.6,7.3,1.7c2.2,1.1,3.9,2.7,5.1,4.7c1.2,2,1.8,4.3,1.8,6.9c0,2.7-0.6,5-1.7,7
		c-1.2,2-2.9,3.6-5.1,4.8c-2.2,1.2-4.7,1.7-7.4,1.7c-2.7,0-5.2-0.6-7.4-1.7c-2.2-1.2-3.9-2.8-5.1-4.8c-1.2-2-1.7-4.4-1.7-7
		c0-2.6,0.6-4.9,1.8-6.9c1.2-2,2.9-3.6,5.1-4.7C108.4,320.7,110.8,320.1,113.5,320.1z M106.4,333.4c0,2.6,0.6,4.7,1.9,6.2
		s3,2.3,5.1,2.3c2.2,0,4-0.7,5.2-2.2s1.9-3.6,1.9-6.3c0-2.6-0.6-4.7-1.9-6.1c-1.3-1.4-3-2.1-5.2-2.1c-2.1,0-3.7,0.8-5,2.3
		C107.1,328.9,106.4,330.9,106.4,333.4z"/>
	<path fill="#3D261F" d="M139.7,320.6v16c0,1.7,0.4,3,1.3,3.8c0.8,0.9,2,1.3,3.3,1.3c1.1,0,2.2-0.4,3.3-1.1c1.1-0.7,1.9-1.7,2.5-3
		v-17.1h6.8v25.9h-6.8V343c-2.5,2.7-5.1,4-8,4c-2.8,0-5-0.9-6.7-2.7c-1.7-1.8-2.5-4.2-2.5-7.1v-16.6H139.7z"/>
	<path fill="#3D261F" d="M178.6,320.1c0.9,0,1.8,0.2,2.7,0.6c0.9,0.4,1.9,1.1,3.1,2l-2.4,6c-2-1.5-3.6-2.2-4.8-2.2
		c-1.1,0-2.1,0.4-3.1,1.2c-1,0.8-1.8,1.8-2.5,3.1c-0.6,1.3-0.9,2.6-0.9,3.9v11.8h-6.8v-25.9h6.8v6.6h0.1c1.2-2.5,2.5-4.3,3.7-5.4
		C175.7,320.7,177.1,320.1,178.6,320.1z"/>
	<path fill="#3D261F" d="M210.4,313.7h0.6v6.9h8.9v5.2h-8.9v11.9c0,1.2,0.4,2.1,1.1,2.8c0.7,0.7,1.7,1.1,2.9,1.1
		c1.6,0,3.4-0.6,5.5-1.7v5.5c-2.5,1.1-4.8,1.6-6.9,1.6c-2.9,0-5.2-0.8-6.8-2.4c-1.6-1.6-2.5-3.7-2.5-6.5v-12.4h-4v-1.1L210.4,313.7z
		"/>
	<path fill="#3D261F" d="M237,320.1c2.7,0,5.1,0.6,7.3,1.7c2.2,1.1,3.9,2.7,5.1,4.7c1.2,2,1.8,4.3,1.8,6.9c0,2.7-0.6,5-1.7,7
		c-1.2,2-2.9,3.6-5.1,4.8c-2.2,1.2-4.7,1.7-7.4,1.7c-2.7,0-5.2-0.6-7.4-1.7c-2.2-1.2-3.9-2.8-5.1-4.8c-1.2-2-1.7-4.4-1.7-7
		c0-2.6,0.6-4.9,1.8-6.9c1.2-2,2.9-3.6,5.1-4.7C232,320.7,234.4,320.1,237,320.1z M230,333.4c0,2.6,0.6,4.7,1.9,6.2s3,2.3,5.1,2.3
		c2.2,0,4-0.7,5.2-2.2s1.9-3.6,1.9-6.3c0-2.6-0.6-4.7-1.9-6.1c-1.3-1.4-3-2.1-5.2-2.1c-2.1,0-3.7,0.8-5,2.3
		C230.6,328.9,230,330.9,230,333.4z"/>
	<path fill="#3D261F" d="M271.5,320.1c0.9,0,1.8,0.2,2.7,0.6c0.9,0.4,1.9,1.1,3.1,2l-2.4,6c-2-1.5-3.6-2.2-4.8-2.2
		c-1.1,0-2.1,0.4-3.1,1.2c-1,0.8-1.8,1.8-2.5,3.1c-0.6,1.3-0.9,2.6-0.9,3.9v11.8h-6.8v-25.9h6.8v6.6h0.1c1.2-2.5,2.5-4.3,3.7-5.4
		C268.7,320.7,270,320.1,271.5,320.1z"/>
	<path fill="#3D261F" d="M295.4,320.1c2.8,0,5,0.9,6.6,2.7c1.7,1.8,2.5,4.2,2.5,7.2v16.5h-6.8v-15.8c0-1.7-0.4-3-1.2-4
		c-0.8-1-1.9-1.5-3.3-1.5c-1.1,0-2,0.3-3,0.9c-0.9,0.6-1.9,1.6-3,3.1v17.2h-6.8v-25.9h6.8v3.6c1.3-1.5,2.5-2.5,3.9-3.2
		C292.5,320.4,293.9,320.1,295.4,320.1z"/>
	<path fill="#3D261F" d="M320.5,320.1c3.3,0,5.9,0.7,7.6,2.1c1.8,1.4,2.6,3.4,2.6,5.9v12.7c0,1,0.4,1.5,1.2,1.5
		c0.3,0,0.8-0.1,1.4-0.4c0.6-0.3,1.1-0.6,1.5-1v3.9c-2.4,1.5-4.6,2.2-6.5,2.2c-1.2,0-2.2-0.2-2.8-0.6c-0.7-0.4-1.1-1.1-1.4-2.2
		c-2.6,1.8-5.2,2.8-7.8,2.8c-1.9,0-3.5-0.6-4.8-1.9s-2-2.8-2-4.5c0-2.2,0.7-4,2-5.3c1.3-1.3,3.7-2.4,7-3.4l5.5-1.6v-1.2
		c0-2.5-1.5-3.8-4.6-3.8c-1.6,0-3.1,0.4-4.7,1.1c-1.6,0.7-3,1.8-4.2,3.2v-6.1C313.2,321.2,316.6,320.1,320.5,320.1z M316.3,339.6
		c0,0.9,0.3,1.7,0.9,2.3c0.6,0.6,1.3,0.9,2.2,0.9c1.5,0,3-0.7,4.5-2v-6.8c-1.9,0.6-3.4,1.3-4.5,1.8c-1.1,0.6-1.9,1.2-2.4,1.7
		C316.6,338,316.3,338.7,316.3,339.6z"/>
	<path fill="#3D261F" d="M356,321.2v-13.4h6.8v38.7h-12c-4.1,0-7.4-1.2-9.9-3.6c-2.5-2.4-3.7-5.6-3.7-9.8c0-2.4,0.6-4.7,1.7-6.6
		c1.2-2,2.7-3.6,4.8-4.7c2-1.1,4.2-1.7,6.6-1.7C352,320.1,354,320.5,356,321.2z M352.5,341.3h3.6v-15c-1.4-0.7-2.9-1.1-4.4-1.1
		c-2.3,0-4.1,0.7-5.4,2.1c-1.4,1.4-2,3.3-2,5.6C344.2,338.5,346.9,341.3,352.5,341.3z"/>
	<path fill="#3D261F" d="M382.5,320.1c2.7,0,5.1,0.6,7.3,1.7c2.2,1.1,3.9,2.7,5.1,4.7c1.2,2,1.8,4.3,1.8,6.9c0,2.7-0.6,5-1.7,7
		c-1.2,2-2.9,3.6-5.1,4.8c-2.2,1.2-4.7,1.7-7.4,1.7c-2.7,0-5.2-0.6-7.4-1.7c-2.2-1.2-3.9-2.8-5.1-4.8c-1.2-2-1.7-4.4-1.7-7
		c0-2.6,0.6-4.9,1.8-6.9c1.2-2,2.9-3.6,5.1-4.7C377.4,320.7,379.8,320.1,382.5,320.1z M375.4,333.4c0,2.6,0.6,4.7,1.9,6.2
		s3,2.3,5.1,2.3c2.2,0,4-0.7,5.2-2.2s1.9-3.6,1.9-6.3c0-2.6-0.6-4.7-1.9-6.1c-1.3-1.4-3-2.1-5.2-2.1c-2.1,0-3.7,0.8-5,2.3
		C376.1,328.9,375.4,330.9,375.4,333.4z"/>
	<path fill="#3D261F" d="M424.7,307.8v16.5h0.2c2.2-2.8,4.8-4.1,8-4.1c2.8,0,5,0.9,6.6,2.7c1.7,1.8,2.5,4.2,2.5,7.1v16.6h-6.8v-15.3
		c0-1.7-0.4-3.1-1.2-4.1c-0.8-1-1.9-1.5-3.4-1.5c-1,0-2,0.3-2.9,0.9s-1.9,1.6-3,2.9v17.1h-6.8v-38.7H424.7z"/>
	<path fill="#3D261F" d="M457.9,320.1c3.3,0,5.9,0.7,7.6,2.1c1.8,1.4,2.6,3.4,2.6,5.9v12.7c0,1,0.4,1.5,1.2,1.5
		c0.3,0,0.8-0.1,1.4-0.4c0.6-0.3,1.1-0.6,1.5-1v3.9c-2.4,1.5-4.6,2.2-6.5,2.2c-1.2,0-2.2-0.2-2.8-0.6c-0.7-0.4-1.1-1.1-1.4-2.2
		c-2.6,1.8-5.2,2.8-7.8,2.8c-1.9,0-3.5-0.6-4.8-1.9s-2-2.8-2-4.5c0-2.2,0.7-4,2-5.3s3.7-2.4,7-3.4l5.5-1.6v-1.2
		c0-2.5-1.5-3.8-4.6-3.8c-1.6,0-3.1,0.4-4.7,1.1c-1.6,0.7-3,1.8-4.2,3.2v-6.1C450.7,321.2,454,320.1,457.9,320.1z M453.8,339.6
		c0,0.9,0.3,1.7,0.9,2.3c0.6,0.6,1.3,0.9,2.2,0.9c1.5,0,3-0.7,4.5-2v-6.8c-1.9,0.6-3.4,1.3-4.5,1.8c-1.1,0.6-1.9,1.2-2.4,1.7
		C454,338,453.8,338.7,453.8,339.6z"/>
	<path fill="#3D261F" d="M484.4,320.1c1.4,0,2.8,0.2,4,0.5c1.3,0.3,2.6,0.8,4,1.5v5.5c-1.3-0.8-2.7-1.5-4.2-2s-2.8-0.8-4-0.8
		c-1,0-1.7,0.2-2.3,0.6c-0.6,0.4-0.8,0.9-0.8,1.6c0,0.4,0.2,0.8,0.7,1.2c0.5,0.4,1.7,1.1,3.8,2.1c3,1.5,5,2.9,6.2,4.1
		c1.2,1.3,1.8,2.8,1.8,4.6c0,2.5-0.9,4.5-2.6,5.9c-1.7,1.4-4.1,2.1-7,2.1c-1.8,0-3.6-0.2-5.2-0.6c-1.6-0.4-2.9-0.9-4-1.5v-5.7
		c3.3,1.8,6.1,2.8,8.4,2.8c1.2,0,2.1-0.2,2.8-0.6c0.7-0.4,1.1-1,1.1-1.6c0-0.4-0.1-0.8-0.4-1.1c-0.3-0.3-0.6-0.7-1.2-1
		c-0.5-0.4-2.1-1.2-4.8-2.5c-2.1-1-3.6-2.1-4.6-3.3s-1.5-2.6-1.5-4.2c0-2.3,0.9-4.1,2.7-5.5C479.1,320.8,481.5,320.1,484.4,320.1z"
		/>
	<path fill="#3D261F" d="M525.6,307.3c0.8,0,1.6,0.1,2.5,0.2c0.8,0.1,1.5,0.3,2,0.6v5.5c-0.9-0.3-2-0.4-3.1-0.4
		c-1.6,0-2.9,0.4-3.7,1.3c-0.8,0.9-1.2,2.3-1.2,4.2v1.9h4.4v5.2h-4.4v20.7h-6.8v-20.7h-3.7v-5.2h3.7v-1.9c0-3.5,0.9-6.3,2.8-8.3
		C520,308.3,522.5,307.3,525.6,307.3z"/>
	<path fill="#3D261F" d="M533.8,308.6c1.1,0,2,0.4,2.7,1.1c0.8,0.8,1.1,1.7,1.1,2.7c0,1-0.4,1.9-1.1,2.7c-0.7,0.8-1.7,1.2-2.7,1.2
		c-1,0-1.9-0.4-2.7-1.2c-0.8-0.8-1.2-1.7-1.2-2.7c0-1.1,0.4-2,1.2-2.7S532.8,308.6,533.8,308.6z M537.2,320.6v25.9h-6.8v-25.9H537.2
		z"/>
	<path fill="#3D261F" d="M566.5,320.6L553,341.4h13.5v5.1h-24.9l13.5-20.7h-12.5v-5.2H566.5z"/>
	<path fill="#3D261F" d="M593.4,320.6l-13.5,20.8h13.5v5.1h-24.9l13.5-20.7h-12.5v-5.2H593.4z"/>
	<path fill="#3D261F" d="M605.1,307.8v38.7h-6.8v-38.7H605.1z"/>
	<path fill="#3D261F" d="M623.7,320.1c3.8,0,6.8,1.2,9,3.7c2.2,2.4,3.3,5.8,3.3,10.1v1h-18.3c0.3,2.3,1.1,4.1,2.6,5.3
		c1.4,1.2,3.4,1.9,6,1.9c1.6,0,3.2-0.3,4.7-0.8c1.5-0.6,3.1-1.4,4.7-2.6v5.1c-3,2.1-6.7,3.2-11,3.2c-4.1,0-7.4-1.2-10-3.7
		s-3.9-5.7-3.9-9.8c0-3.9,1.2-7.1,3.6-9.6S619.9,320.1,623.7,320.1z M629.7,330.8c-0.2-1.9-0.8-3.4-1.7-4.4c-1-1.1-2.3-1.6-4-1.6
		c-1.7,0-3.1,0.5-4.1,1.5c-1,1-1.7,2.5-2,4.5H629.7z"/>
	<path fill="#3D261F" d="M658.9,321.2v-13.4h6.8v38.7h-12c-4.1,0-7.4-1.2-9.9-3.6c-2.5-2.4-3.7-5.6-3.7-9.8c0-2.4,0.6-4.7,1.7-6.6
		c1.2-2,2.7-3.6,4.8-4.7c2-1.1,4.2-1.7,6.6-1.7C654.9,320.1,656.8,320.5,658.9,321.2z M655.3,341.3h3.6v-15
		c-1.4-0.7-2.9-1.1-4.4-1.1c-2.3,0-4.1,0.7-5.4,2.1c-1.4,1.4-2,3.3-2,5.6C647,338.5,649.8,341.3,655.3,341.3z"/>
	<path fill="#3D261F" d="M701.1,320.1c2.7,0,5.1,0.6,7.3,1.7c2.2,1.1,3.9,2.7,5.1,4.7c1.2,2,1.8,4.3,1.8,6.9c0,2.7-0.6,5-1.7,7
		c-1.2,2-2.9,3.6-5.1,4.8c-2.2,1.2-4.7,1.7-7.4,1.7c-2.7,0-5.2-0.6-7.4-1.7c-2.2-1.2-3.9-2.8-5.1-4.8c-1.2-2-1.7-4.4-1.7-7
		c0-2.6,0.6-4.9,1.8-6.9c1.2-2,2.9-3.6,5.1-4.7C696,320.7,698.4,320.1,701.1,320.1z M694,333.4c0,2.6,0.6,4.7,1.9,6.2
		c1.3,1.5,3,2.3,5.1,2.3c2.2,0,4-0.7,5.2-2.2s1.9-3.6,1.9-6.3c0-2.6-0.6-4.7-1.9-6.1c-1.3-1.4-3-2.1-5.2-2.1c-2.1,0-3.7,0.8-5,2.3
		C694.7,328.9,694,330.9,694,333.4z"/>
	<path fill="#3D261F" d="M727.3,320.6v16c0,1.7,0.4,3,1.3,3.8c0.8,0.9,2,1.3,3.3,1.3c1.1,0,2.2-0.4,3.3-1.1c1.1-0.7,1.9-1.7,2.5-3
		v-17.1h6.8v25.9h-6.8V343c-2.5,2.7-5.1,4-8,4c-2.8,0-5-0.9-6.7-2.7c-1.7-1.8-2.5-4.2-2.5-7.1v-16.6H727.3z"/>
	<path fill="#3D261F" d="M758.5,313.7h0.6v6.9h8.9v5.2h-8.9v11.9c0,1.2,0.4,2.1,1.1,2.8c0.7,0.7,1.7,1.1,2.9,1.1
		c1.6,0,3.4-0.6,5.5-1.7v5.5c-2.5,1.1-4.8,1.6-6.9,1.6c-2.9,0-5.2-0.8-6.8-2.4c-1.6-1.6-2.5-3.7-2.5-6.5v-12.4h-4v-1.1L758.5,313.7z
		"/>
	<path fill="#3D261F" d="M775.9,338.5c1.1,0,2.1,0.4,3,1.2c0.9,0.8,1.3,1.8,1.3,3c0,1.1-0.4,2.1-1.2,3c-0.8,0.8-1.8,1.3-3,1.3
		c-1.2,0-2.2-0.4-3-1.3c-0.8-0.8-1.3-1.8-1.3-3c0-1.2,0.4-2.2,1.3-3S774.8,338.5,775.9,338.5z"/>
</g>
<g enable-background="new    ">
	<path fill="#3D261F" d="M115,392.9v5.8h-13.7v32.9h-7.5v-32.9H80.1v-5.8H115z"/>
	<path fill="#3D261F" d="M130.1,405.2c0.9,0,1.8,0.2,2.7,0.6c0.9,0.4,1.9,1.1,3.1,2l-2.4,6c-2-1.5-3.6-2.2-4.8-2.2
		c-1.1,0-2.1,0.4-3.1,1.2c-1,0.8-1.8,1.8-2.5,3.1c-0.6,1.3-0.9,2.6-0.9,3.9v11.8h-6.8v-25.9h6.8v6.6h0.1c1.2-2.5,2.5-4.3,3.7-5.4
		C127.2,405.8,128.6,405.2,130.1,405.2z"/>
	<path fill="#3D261F" d="M143,405.7l6.1,13.9l6.2-13.9h7.3l-17.9,38.9h-7.3l8.2-17.8l-10.1-21.1H143z"/>
	<path fill="#3D261F" d="M196.9,405.2c2,0,3.7,0.5,5.1,1.4s2.4,2.2,3.1,3.8c1.5-1.8,2.9-3.1,4.4-3.9c1.4-0.8,3-1.2,4.8-1.2
		c2.7,0,4.9,0.9,6.6,2.7c1.7,1.8,2.5,4.2,2.5,7.1v16.6h-6.8v-15.4c0-1.8-0.4-3.2-1.1-4.2c-0.8-1-1.9-1.6-3.3-1.6c-2.1,0-4.1,1.3-6,4
		v17.2h-6.8V416c0-1.8-0.4-3.2-1.2-4.2c-0.8-1-1.9-1.5-3.3-1.5c-1.1,0-2.1,0.3-3,1c-0.9,0.6-1.9,1.7-3,3.1v17.2h-6.8v-25.9h6.8v3.6
		c1.2-1.4,2.5-2.4,3.8-3.1C193.8,405.6,195.2,405.2,196.9,405.2z"/>
	<path fill="#3D261F" d="M242.7,405.2c2.7,0,5.1,0.6,7.3,1.7c2.2,1.1,3.9,2.7,5.1,4.7c1.2,2,1.8,4.3,1.8,6.9c0,2.7-0.6,5-1.7,7
		c-1.2,2-2.9,3.6-5.1,4.8c-2.2,1.2-4.7,1.7-7.4,1.7c-2.7,0-5.2-0.6-7.4-1.7c-2.2-1.2-3.9-2.8-5.1-4.8c-1.2-2-1.7-4.4-1.7-7
		c0-2.6,0.6-4.9,1.8-6.9c1.2-2,2.9-3.6,5.1-4.7C237.7,405.8,240.1,405.2,242.7,405.2z M235.7,418.5c0,2.6,0.6,4.7,1.9,6.2
		s3,2.3,5.1,2.3c2.2,0,4-0.7,5.2-2.2s1.9-3.6,1.9-6.3c0-2.6-0.6-4.7-1.9-6.1c-1.3-1.4-3-2.1-5.2-2.1c-2.1,0-3.7,0.8-5,2.3
		C236.4,414,235.7,416,235.7,418.5z"/>
	<path fill="#3D261F" d="M266.5,405.7l6.2,15l6.1-15h7.3l-11.7,26.4H271l-11.9-26.4H266.5z"/>
	<path fill="#3D261F" d="M293.1,393.7c1.1,0,2,0.4,2.7,1.1c0.8,0.8,1.1,1.7,1.1,2.7c0,1-0.4,1.9-1.1,2.7c-0.7,0.8-1.7,1.2-2.7,1.2
		c-1,0-1.9-0.4-2.7-1.2c-0.8-0.8-1.1-1.7-1.1-2.7c0-1.1,0.4-2,1.2-2.7C291.2,394.1,292.1,393.7,293.1,393.7z M296.5,405.7v25.9h-6.8
		v-25.9H296.5z"/>
	<path fill="#3D261F" d="M318.6,405.2c2.8,0,5,0.9,6.6,2.7c1.7,1.8,2.5,4.2,2.5,7.2v16.5h-6.8v-15.8c0-1.7-0.4-3-1.2-4
		c-0.8-1-1.9-1.5-3.3-1.5c-1.1,0-2,0.3-3,0.9c-0.9,0.6-1.9,1.6-3,3.1v17.2h-6.8v-25.9h6.8v3.6c1.3-1.5,2.5-2.5,3.9-3.2
		C315.6,405.5,317,405.2,318.6,405.2z"/>
	<path fill="#3D261F" d="M358.2,405.7v4.8h-4.4c0.7,0.9,1.2,1.7,1.5,2.5c0.3,0.7,0.4,1.6,0.4,2.4c0,2.1-0.8,4-2.3,5.7
		c-1.4,1.5-3.7,2.5-7,2.9c-1.8,0.2-3,0.5-3.6,0.8c-0.6,0.3-0.9,0.7-0.9,1.3c0,0.5,0.4,0.9,1.1,1.2s1.9,0.6,3.4,0.8
		c3.9,0.6,6.8,1.6,8.6,2.9c1.8,1.3,2.8,3,2.8,5.1c0,2.7-1.1,4.8-3.4,6.3c-2.2,1.5-5.4,2.2-9.6,2.2c-4,0-7.1-0.7-9.5-2.1
		c-2.3-1.4-3.5-3.2-3.5-5.6c0-3.3,2.3-5.6,6.8-6.8c-2-0.8-2.9-2-2.9-3.4c0-1.8,1.5-3.1,4.4-3.7V423c-2-0.6-3.6-1.5-4.8-3
		c-1.2-1.4-1.8-3.1-1.8-5c0-2.8,1.1-5,3.2-6.7s4.9-2.6,8.3-2.6H358.2z M338.1,436.7c0,2.3,2.3,3.5,6.9,3.5c2,0,3.6-0.3,4.7-1
		c1.1-0.6,1.7-1.5,1.7-2.5c0-1.1-0.6-2-1.9-2.6c-1.3-0.6-3.1-0.9-5.4-0.9c-1.8,0-3.2,0.3-4.3,1C338.6,434.9,338.1,435.7,338.1,436.7
		z M339.7,415.1c0,1.3,0.5,2.5,1.4,3.4c1,0.9,2.1,1.3,3.5,1.3c1.4,0,2.6-0.5,3.5-1.4c0.9-0.9,1.4-2.1,1.4-3.5c0-1.3-0.5-2.3-1.4-3.2
		c-0.9-0.9-2.1-1.3-3.4-1.3c-1.4,0-2.5,0.5-3.5,1.4S339.7,413.8,339.7,415.1z"/>
	<path fill="#3D261F" d="M381.5,393.7c1.1,0,2,0.4,2.7,1.1c0.8,0.8,1.1,1.7,1.1,2.7c0,1-0.4,1.9-1.1,2.7c-0.7,0.8-1.7,1.2-2.7,1.2
		c-1,0-1.9-0.4-2.7-1.2c-0.8-0.8-1.1-1.7-1.1-2.7c0-1.1,0.4-2,1.2-2.7C379.6,394.1,380.5,393.7,381.5,393.7z M384.9,405.7v25.9h-6.8
		v-25.9H384.9z"/>
	<path fill="#3D261F" d="M406.9,405.2c2.8,0,5,0.9,6.6,2.7c1.7,1.8,2.5,4.2,2.5,7.2v16.5h-6.8v-15.8c0-1.7-0.4-3-1.2-4
		c-0.8-1-1.9-1.5-3.3-1.5c-1.1,0-2,0.3-3,0.9c-0.9,0.6-1.9,1.6-3,3.1v17.2h-6.8v-25.9h6.8v3.6c1.3-1.5,2.5-2.5,3.9-3.2
		C403.9,405.5,405.4,405.2,406.9,405.2z"/>
	<path fill="#3D261F" d="M445.5,398.8h0.6v6.9h8.9v5.2H446v11.9c0,1.2,0.4,2.1,1.1,2.8c0.7,0.7,1.7,1.1,2.9,1.1
		c1.6,0,3.4-0.6,5.5-1.7v5.5c-2.5,1.1-4.8,1.6-6.9,1.6c-2.9,0-5.2-0.8-6.8-2.4c-1.6-1.6-2.5-3.7-2.5-6.5v-12.4h-4v-1.1L445.5,398.8z
		"/>
	<path fill="#3D261F" d="M466.2,392.9v16.5h0.2c2.2-2.8,4.8-4.1,8-4.1c2.8,0,5,0.9,6.6,2.7c1.7,1.8,2.5,4.2,2.5,7.1v16.6h-6.8v-15.3
		c0-1.7-0.4-3.1-1.2-4.1c-0.8-1-1.9-1.5-3.4-1.5c-1,0-2,0.3-2.9,0.9s-1.9,1.6-3,2.9v17.1h-6.8v-38.7H466.2z"/>
	<path fill="#3D261F" d="M501.6,405.2c3.8,0,6.8,1.2,9,3.7c2.2,2.4,3.3,5.8,3.3,10.1v1h-18.3c0.3,2.3,1.1,4.1,2.6,5.3
		c1.4,1.2,3.4,1.9,6,1.9c1.6,0,3.2-0.3,4.7-0.8c1.5-0.6,3.1-1.4,4.7-2.6v5.1c-3,2.1-6.7,3.2-11,3.2c-4.1,0-7.4-1.2-10-3.7
		s-3.9-5.7-3.9-9.8c0-3.9,1.2-7.1,3.6-9.6S497.8,405.2,501.6,405.2z M507.6,415.9c-0.2-1.9-0.8-3.4-1.7-4.4c-1-1.1-2.3-1.6-4-1.6
		c-1.7,0-3.1,0.5-4.1,1.5c-1,1-1.7,2.5-2,4.5H507.6z"/>
	<path fill="#3D261F" d="M542.1,405.7v28c0,2.9-0.7,5.2-2,7.1c-1.3,1.9-3.2,3.1-5.8,3.8l-3.2-5.8c2.7-0.6,4.1-2.7,4.1-6.1v-27.1
		H542.1z M538.7,393.7c1,0,1.9,0.4,2.7,1.1c0.8,0.8,1.1,1.7,1.1,2.7c0,1.1-0.4,2-1.1,2.7c-0.7,0.8-1.6,1.1-2.7,1.1
		c-1,0-1.9-0.4-2.7-1.2c-0.8-0.8-1.2-1.7-1.2-2.7c0-1.1,0.4-2,1.2-2.7S537.7,393.7,538.7,393.7z"/>
	<path fill="#3D261F" d="M560.7,405.2c3.8,0,6.8,1.2,9,3.7c2.2,2.4,3.3,5.8,3.3,10.1v1h-18.3c0.3,2.3,1.1,4.1,2.6,5.3
		c1.4,1.2,3.4,1.9,6,1.9c1.6,0,3.2-0.3,4.7-0.8c1.5-0.6,3.1-1.4,4.7-2.6v5.1c-3,2.1-6.7,3.2-11,3.2c-4.1,0-7.4-1.2-10-3.7
		s-3.9-5.7-3.9-9.8c0-3.9,1.2-7.1,3.6-9.6S556.9,405.2,560.7,405.2z M566.7,415.9c-0.2-1.9-0.8-3.4-1.7-4.4c-1-1.1-2.3-1.6-4-1.6
		c-1.7,0-3.1,0.5-4.1,1.5c-1,1-1.7,2.5-2,4.5H566.7z"/>
	<path fill="#3D261F" d="M585.5,398.8h0.6v6.9h8.9v5.2h-8.9v11.9c0,1.2,0.4,2.1,1.1,2.8c0.7,0.7,1.7,1.1,2.9,1.1
		c1.6,0,3.4-0.6,5.5-1.7v5.5c-2.5,1.1-4.8,1.6-6.9,1.6c-2.9,0-5.2-0.8-6.8-2.4c-1.6-1.6-2.5-3.7-2.5-6.5v-12.4h-4v-1.1L585.5,398.8z
		"/>
	<path fill="#3D261F" d="M607.8,405.2c1.4,0,2.8,0.2,4,0.5c1.3,0.3,2.6,0.8,4,1.5v5.5c-1.3-0.8-2.7-1.5-4.2-2s-2.8-0.8-4-0.8
		c-1,0-1.7,0.2-2.3,0.6c-0.6,0.4-0.8,0.9-0.8,1.6c0,0.4,0.2,0.8,0.7,1.2c0.5,0.4,1.7,1.1,3.8,2.1c3,1.5,5,2.9,6.2,4.1
		c1.2,1.3,1.8,2.8,1.8,4.6c0,2.5-0.9,4.5-2.6,5.9c-1.7,1.4-4.1,2.1-7,2.1c-1.8,0-3.6-0.2-5.2-0.6c-1.6-0.4-2.9-0.9-4-1.5v-5.7
		c3.3,1.8,6.1,2.8,8.4,2.8c1.2,0,2.1-0.2,2.8-0.6c0.7-0.4,1.1-1,1.1-1.6c0-0.4-0.1-0.8-0.4-1.1c-0.3-0.3-0.6-0.7-1.2-1
		c-0.5-0.4-2.1-1.2-4.8-2.5c-2.1-1-3.6-2.1-4.6-3.3s-1.5-2.6-1.5-4.2c0-2.3,0.9-4.1,2.7-5.5C602.5,405.9,604.9,405.2,607.8,405.2z"
		/>
	<path fill="#3D261F" d="M629.4,398.8h0.6v6.9h8.9v5.2h-8.9v11.9c0,1.2,0.4,2.1,1.1,2.8c0.7,0.7,1.7,1.1,2.9,1.1
		c1.6,0,3.4-0.6,5.5-1.7v5.5c-2.5,1.1-4.8,1.6-6.9,1.6c-2.9,0-5.2-0.8-6.8-2.4c-1.6-1.6-2.5-3.7-2.5-6.5v-12.4h-4v-1.1L629.4,398.8z
		"/>
	<path fill="#3D261F" d="M658,405.2c0.9,0,1.8,0.2,2.7,0.6c0.9,0.4,1.9,1.1,3.1,2l-2.4,6c-2-1.5-3.6-2.2-4.8-2.2
		c-1.1,0-2.1,0.4-3.1,1.2c-1,0.8-1.8,1.8-2.5,3.1c-0.6,1.3-0.9,2.6-0.9,3.9v11.8h-6.8v-25.9h6.8v6.6h0.1c1.2-2.5,2.5-4.3,3.7-5.4
		C655.2,405.8,656.5,405.2,658,405.2z"/>
	<path fill="#3D261F" d="M677.4,405.2c3.8,0,6.8,1.2,9,3.7c2.2,2.4,3.3,5.8,3.3,10.1v1h-18.3c0.3,2.3,1.1,4.1,2.6,5.3
		c1.4,1.2,3.4,1.9,6,1.9c1.6,0,3.2-0.3,4.7-0.8c1.5-0.6,3.1-1.4,4.7-2.6v5.1c-3,2.1-6.7,3.2-11,3.2c-4.1,0-7.4-1.2-10-3.7
		s-3.9-5.7-3.9-9.8c0-3.9,1.2-7.1,3.6-9.6S673.6,405.2,677.4,405.2z M683.4,415.9c-0.2-1.9-0.8-3.4-1.7-4.4c-1-1.1-2.3-1.6-4-1.6
		c-1.7,0-3.1,0.5-4.1,1.5c-1,1-1.7,2.5-2,4.5H683.4z"/>
	<path fill="#3D261F" d="M704.4,405.2c3.3,0,5.9,0.7,7.6,2.1c1.8,1.4,2.6,3.4,2.6,5.9v12.7c0,1,0.4,1.5,1.2,1.5
		c0.3,0,0.8-0.1,1.4-0.4c0.6-0.3,1.1-0.6,1.5-1v3.9c-2.4,1.5-4.6,2.2-6.5,2.2c-1.2,0-2.2-0.2-2.8-0.6c-0.7-0.4-1.1-1.1-1.4-2.2
		c-2.6,1.8-5.2,2.8-7.8,2.8c-1.9,0-3.5-0.6-4.8-1.9s-2-2.8-2-4.5c0-2.2,0.7-4,2-5.3s3.7-2.4,7-3.4l5.5-1.6v-1.2
		c0-2.5-1.5-3.8-4.6-3.8c-1.6,0-3.1,0.4-4.7,1.1c-1.6,0.7-3,1.8-4.2,3.2v-6.1C697.2,406.3,700.5,405.2,704.4,405.2z M700.2,424.7
		c0,0.9,0.3,1.7,0.9,2.3c0.6,0.6,1.3,0.9,2.2,0.9c1.5,0,3-0.7,4.5-2v-6.8c-1.9,0.6-3.4,1.3-4.5,1.8c-1.1,0.6-1.9,1.2-2.4,1.7
		C700.5,423.1,700.2,423.8,700.2,424.7z"/>
	<path fill="#3D261F" d="M737.5,405.2c2,0,3.7,0.5,5.1,1.4s2.4,2.2,3.1,3.8c1.5-1.8,2.9-3.1,4.4-3.9c1.5-0.8,3-1.2,4.8-1.2
		c2.7,0,4.9,0.9,6.6,2.7c1.7,1.8,2.5,4.2,2.5,7.1v16.6h-6.8v-15.4c0-1.8-0.4-3.2-1.1-4.2c-0.8-1-1.9-1.6-3.3-1.6c-2.1,0-4.1,1.3-6,4
		v17.2h-6.8V416c0-1.8-0.4-3.2-1.2-4.2c-0.8-1-1.9-1.5-3.3-1.5c-1.1,0-2.1,0.3-3,1c-0.9,0.6-1.9,1.7-3,3.1v17.2h-6.8v-25.9h6.8v3.6
		c1.2-1.4,2.5-2.4,3.8-3.1C734.4,405.6,735.8,405.2,737.5,405.2z"/>
</g>
<g enable-background="new    ">
	<path fill="#3D261F" d="M238,459.4h0.6v6.9h8.9v5.2h-8.9v11.9c0,1.2,0.4,2.1,1.1,2.8c0.7,0.7,1.7,1.1,2.9,1.1
		c1.6,0,3.4-0.6,5.5-1.7v5.5c-2.5,1.1-4.8,1.6-6.9,1.6c-2.9,0-5.2-0.8-6.8-2.4c-1.6-1.6-2.5-3.7-2.5-6.5v-12.4h-4v-1.1L238,459.4z"
		/>
	<path fill="#3D261F" d="M264.7,465.7c2.7,0,5.1,0.6,7.3,1.7c2.2,1.1,3.9,2.7,5.1,4.7c1.2,2,1.8,4.3,1.8,6.9c0,2.7-0.6,5-1.7,7
		c-1.2,2-2.9,3.6-5.1,4.8c-2.2,1.2-4.7,1.7-7.4,1.7c-2.7,0-5.2-0.6-7.4-1.7c-2.2-1.2-3.9-2.8-5.1-4.8c-1.2-2-1.7-4.4-1.7-7
		c0-2.6,0.6-4.9,1.8-6.9c1.2-2,2.9-3.6,5.1-4.7C259.6,466.3,262,465.7,264.7,465.7z M257.6,479.1c0,2.6,0.6,4.7,1.9,6.2
		s3,2.3,5.1,2.3c2.2,0,4-0.7,5.2-2.2s1.9-3.6,1.9-6.3c0-2.6-0.6-4.7-1.9-6.1c-1.3-1.4-3-2.1-5.2-2.1c-2.1,0-3.7,0.8-5,2.3
		C258.3,474.6,257.6,476.6,257.6,479.1z"/>
	<path fill="#3D261F" d="M307,453.4v38.7h-6.8v-38.7H307z M325.7,466.2L315.2,479l11.8,13.1h-8.6L307.1,479l10.7-12.8H325.7z"/>
	<path fill="#3D261F" d="M341.1,465.7c3.8,0,6.8,1.2,9,3.7c2.2,2.4,3.3,5.8,3.3,10.1v1h-18.3c0.3,2.3,1.1,4.1,2.6,5.3
		c1.4,1.2,3.4,1.9,6,1.9c1.6,0,3.2-0.3,4.7-0.8c1.5-0.6,3.1-1.4,4.7-2.6v5.1c-3,2.1-6.7,3.2-11,3.2c-4.1,0-7.4-1.2-10-3.7
		c-2.6-2.5-3.9-5.7-3.9-9.8c0-3.9,1.2-7.1,3.6-9.6C334.2,467,337.3,465.7,341.1,465.7z M347.1,476.4c-0.2-1.9-0.8-3.4-1.7-4.4
		c-1-1.1-2.3-1.6-4-1.6c-1.7,0-3.1,0.5-4.1,1.5s-1.7,2.5-2,4.5H347.1z"/>
	<path fill="#3D261F" d="M370.4,465.7c3.8,0,6.8,1.2,9,3.7c2.2,2.4,3.3,5.8,3.3,10.1v1h-18.3c0.3,2.3,1.1,4.1,2.6,5.3
		c1.4,1.2,3.4,1.9,6,1.9c1.6,0,3.2-0.3,4.7-0.8c1.5-0.6,3.1-1.4,4.7-2.6v5.1c-3,2.1-6.7,3.2-11,3.2c-4.1,0-7.4-1.2-10-3.7
		c-2.6-2.5-3.9-5.7-3.9-9.8c0-3.9,1.2-7.1,3.6-9.6C363.4,467,366.6,465.7,370.4,465.7z M376.4,476.4c-0.2-1.9-0.8-3.4-1.7-4.4
		c-1-1.1-2.3-1.6-4-1.6c-1.7,0-3.1,0.5-4.1,1.5s-1.7,2.5-2,4.5H376.4z"/>
	<path fill="#3D261F" d="M401.4,465.7c3.7,0,6.7,1.2,8.9,3.7c2.3,2.5,3.4,5.7,3.4,9.7c0,2.6-0.5,4.9-1.6,7s-2.6,3.6-4.5,4.8
		c-2,1.1-4.2,1.7-6.6,1.7c-2,0-4-0.5-6.1-1.5v14.1h-6.8v-38.9h6.8v1.7C396.9,466.5,399.1,465.7,401.4,465.7z M394.9,486.1
		c1.7,1,3.3,1.5,4.8,1.5c2.1,0,3.9-0.8,5.2-2.3s1.9-3.5,1.9-5.9c0-2.6-0.6-4.7-1.7-6.2s-2.8-2.2-4.9-2.2c-0.8,0-1.6,0.1-2.3,0.4
		c-0.7,0.3-1.7,0.8-2.9,1.7V486.1z"/>
	<path fill="#3D261F" d="M438.6,454.3c1.1,0,2,0.4,2.7,1.1c0.8,0.8,1.1,1.7,1.1,2.7c0,1-0.4,1.9-1.1,2.7c-0.7,0.8-1.7,1.2-2.7,1.2
		c-1,0-1.9-0.4-2.7-1.2c-0.8-0.8-1.2-1.7-1.2-2.7c0-1.1,0.4-2,1.2-2.7S437.6,454.3,438.6,454.3z M442,466.2v25.9h-6.8v-25.9H442z"/>
	<path fill="#3D261F" d="M456.1,459.4h0.6v6.9h8.9v5.2h-8.9v11.9c0,1.2,0.4,2.1,1.1,2.8c0.7,0.7,1.7,1.1,2.9,1.1
		c1.6,0,3.4-0.6,5.5-1.7v5.5c-2.5,1.1-4.8,1.6-6.9,1.6c-2.9,0-5.2-0.8-6.8-2.4c-1.6-1.6-2.5-3.7-2.5-6.5v-12.4h-4v-1.1L456.1,459.4z
		"/>
	<path fill="#3D261F" d="M495,465.7c3.3,0,5.9,0.7,7.6,2.1c1.8,1.4,2.6,3.4,2.6,5.9v12.7c0,1,0.4,1.5,1.2,1.5c0.3,0,0.8-0.1,1.4-0.4
		c0.6-0.3,1.1-0.6,1.5-1v3.9c-2.4,1.5-4.6,2.2-6.5,2.2c-1.2,0-2.2-0.2-2.8-0.6c-0.7-0.4-1.1-1.1-1.4-2.2c-2.6,1.8-5.2,2.8-7.8,2.8
		c-1.9,0-3.5-0.6-4.8-1.9s-2-2.8-2-4.5c0-2.2,0.7-4,2-5.3s3.7-2.4,7-3.4l5.5-1.6v-1.2c0-2.5-1.5-3.8-4.6-3.8c-1.6,0-3.1,0.4-4.7,1.1
		c-1.6,0.7-3,1.8-4.2,3.2v-6.1C487.8,466.9,491.2,465.7,495,465.7z M490.9,485.2c0,0.9,0.3,1.7,0.9,2.3c0.6,0.6,1.3,0.9,2.2,0.9
		c1.5,0,3-0.7,4.5-2v-6.8c-1.9,0.6-3.4,1.3-4.5,1.8c-1.1,0.6-1.9,1.2-2.4,1.7C491.1,483.6,490.9,484.3,490.9,485.2z"/>
	<path fill="#3D261F" d="M520.2,453.4v38.7h-6.8v-38.7H520.2z"/>
	<path fill="#3D261F" d="M530.8,454.3c1.1,0,2,0.4,2.7,1.1c0.8,0.8,1.1,1.7,1.1,2.7c0,1-0.4,1.9-1.1,2.7c-0.7,0.8-1.7,1.2-2.7,1.2
		c-1,0-1.9-0.4-2.7-1.2c-0.8-0.8-1.2-1.7-1.2-2.7c0-1.1,0.4-2,1.2-2.7S529.8,454.3,530.8,454.3z M534.2,466.2v25.9h-6.8v-25.9H534.2
		z"/>
	<path fill="#3D261F" d="M545.3,466.2l6.2,15l6.1-15h7.3l-11.7,26.4h-3.3L538,466.2H545.3z"/>
	<path fill="#3D261F" d="M579.9,465.7c3.8,0,6.8,1.2,9,3.7c2.2,2.4,3.3,5.8,3.3,10.1v1H574c0.3,2.3,1.1,4.1,2.6,5.3
		c1.4,1.2,3.4,1.9,6,1.9c1.6,0,3.2-0.3,4.7-0.8c1.5-0.6,3.1-1.4,4.7-2.6v5.1c-3,2.1-6.7,3.2-11,3.2c-4.1,0-7.4-1.2-10-3.7
		s-3.9-5.7-3.9-9.8c0-3.9,1.2-7.1,3.6-9.6S576.1,465.7,579.9,465.7z M585.9,476.4c-0.2-1.9-0.8-3.4-1.7-4.4c-1-1.1-2.3-1.6-4-1.6
		c-1.7,0-3.1,0.5-4.1,1.5c-1,1-1.7,2.5-2,4.5H585.9z"/>
	<path fill="#3D261F" d="M601.9,484.1c1.1,0,2.1,0.4,3,1.3s1.3,1.9,1.3,3c0,1.1-0.4,2.1-1.3,3c-0.9,0.8-1.8,1.3-3,1.3
		c-1.2,0-2.2-0.4-3-1.3c-0.8-0.8-1.2-1.8-1.2-3c0-1.1,0.4-2.1,1.3-3C599.7,484.5,600.7,484.1,601.9,484.1z M601.9,452.9
		c2.6,0,4,2.4,4,7.2c0,2.6-0.4,6.3-1.1,11c-0.7,4.7-1.3,7.5-1.7,8.5c-0.3,0.6-0.7,1-1.2,1c-0.6,0-1-0.3-1.3-0.9
		c-0.4-0.7-1-3.4-1.7-7.9c-0.7-4.6-1.1-8.4-1.1-11.6C597.8,455.3,599.2,452.9,601.9,452.9z"/>
</g>
<g>
	<path fill="#3D261F" d="M134.5,221.8c-2.6,1.1-4.9,2.1-6.8,2.8s-3.8,1.5-5.5,2.1c-1.7,0.6-4.3,1.5-7.8,2.5
		c-5.7,1.7-11.5,2.8-17.2,3.8c-5.9,0.9-11.9,1.5-18.3,1.9c-13,0.6-25.3-1.5-36.7-6.1c-11.3-4.5-20.6-12.1-27.6-22.5
		C7.4,196.1,3.8,183,3.8,167.5c0-10,1.9-19.9,5.5-29.5c3.6-9.6,9.1-17.2,16.5-23.1c6.1-4.7,12.1-8.3,18.3-10.8
		c6.1-2.5,12.1-4,17.8-4.9c5.7-0.8,12.1-1.1,18.9-1.1c11.3,0.2,20.6,1.1,27.8,2.8c7.2,1.7,15.1,4.2,23.6,7v30.8
		c-5.7-3.4-11.5-6.2-18-8.7c-6.4-2.3-14.4-3.4-24-3.4c-11.2,0-20.2,2.3-27,6.6c-6.8,4.3-11.5,9.8-14.2,15.9c-2.6,6.2-4,12.1-4,18
		c0,6.8,1.5,13,4.7,18.7c3,5.7,7.8,10.2,14,13.4s13.6,4.7,22.3,4.5c4.9-0.2,10.2-0.9,15.7-2.5v-15.5l-17.4,0.4v-26.5l50.3-0.6v62.6
		H134.5z"/>
	<path fill="#3D261F" d="M244,222.4c-4.3,2.1-8.3,3.8-12.1,4.9c-3.8,1.3-8.1,2.1-13.4,2.3c-4.9,0.2-8.5-0.6-10.4-2.5
		s-3.4-4.2-4.2-6.8c-3.2,3-7,5.5-11,7.6c-4,2.1-9.5,3.2-16.1,3.4c-6.4,0.2-11.7-0.8-15.7-3c-4-2.3-6.8-5.1-8.5-8.7
		s-2.5-7.4-2.5-11.2c0-5.9,1.3-10.8,4.2-14.8c2.8-4,6.4-7.2,11.2-9.6c4.7-2.5,10.8-5.1,18.3-7.9c4.3-1.5,7.6-2.6,9.8-3.6
		c2.3-0.8,3.8-1.5,4.9-1.9c1.1-0.4,2.3-0.9,3.4-1.7c0-4.5-0.9-8.1-2.6-10.6c-1.7-2.6-5.5-3.8-11.2-3.8c-6.8,0-13,1.7-18.9,5.1
		c-5.9,3.2-11.3,7.6-16.3,12.7v-25.7c4-3,8.1-5.5,12.7-7.4s9.3-3.4,14.2-4.3s9.8-1.5,14.8-1.5c12.5,0,21.9,2.5,28.2,7.8
		c6.2,5.1,9.3,12.3,9.3,21.4v35.7c0,3.4,0.4,5.9,0.9,7.6c0.6,1.7,1.7,2.5,3.2,2.5c1.9,0,4.3-0.9,7.6-2.8v17H244z M202,205.9v-22.1
		c-7.4,3.4-12.7,6.4-16.1,9.1c-3.4,2.6-5.1,6.2-5.1,10.6c0,3.2,0.8,5.5,2.5,7.2c1.7,1.7,3.6,2.5,5.9,2.3c2.1,0,4.2-0.8,6.2-2.1
		C197.6,209.3,199.7,207.8,202,205.9z"/>
	<path fill="#3D261F" d="M392.6,221.2l-26.9,0.9v-46.9c0-6.2-0.9-10.8-2.6-14c-1.7-3-4.5-4.5-8.5-4.5c-3.8,0-7,1.3-9.5,4.2
		c-2.5,2.6-4.9,6.1-7.4,10v52.2l-28,1.1v-47.8c0-6.1-0.9-10.8-2.6-14s-4.7-4.9-9.3-4.9c-2.1,0-4,0.6-5.9,1.5
		c-1.7,0.9-3.2,2.1-4.3,3.2c-1.1,1.1-2.5,3-4.2,5.3c-1.5,2.3-2.6,3.8-3,4.3v53.3l-29.3,1.1v-91.5l29.3-0.2v13
		c4.3-5.1,8.7-8.9,13.2-11.2c4.5-2.3,9.6-3.4,15.3-3.6c2.6,0,5.3,0.2,7.8,0.8c2.5,0.6,4.9,1.5,7.2,2.8c2.3,1.3,4.5,3.2,6.4,5.5
		c1.9,2.3,3.4,5.1,4.5,8.1c4.5-5.7,9.1-10,13.8-13c4.7-2.8,10.2-4.3,16.3-4.3s11.2,1.3,15.3,4.2c4.2,2.8,7.2,6.8,9.1,12.1
		c1.9,5.3,2.8,11.7,2.8,19.1v53.1H392.6z"/>
	<path fill="#3D261F" d="M478.5,183l-50.3,1.1c0.9,5.3,3.4,9.5,7.4,12.7c4,3.2,8.3,4.7,13.2,4.5c8.5-0.2,18-3.4,28-9.3v18.5
		c-3.6,2.5-8.1,4.5-13.2,6.6c-5.3,2.1-11.9,3.2-20,3.6c-8.9,0.4-16.5-1.3-22.9-5.1c-6.4-3.8-11.2-8.9-14.4-15.7
		c-3.2-6.8-4.7-14.4-4.7-23.1c0-8.5,1.5-16.3,4.7-22.9c3.2-6.8,7.9-12.1,14.4-15.9c6.2-3.8,14-5.7,22.9-5.9c5.9,0,11.5,1.5,16.8,4.3
		c5.3,3,9.8,7.8,13.2,14.4s5.1,15.3,5.1,25.9v6.1H478.5z M455,168.8c0-5.5-1.1-9.8-3.4-13s-5.5-4.9-9.8-4.7c-4.3,0-7.8,1.7-10.4,5.1
		c-2.6,3.4-4,7.8-4,13.2L455,168.8z"/>
	<path fill="#3D261F" d="M606.3,158.6c0,10.2-1.9,19.5-5.5,28.2c-3.8,8.7-9.3,15.7-16.6,21c-7.4,5.3-16.6,8.3-27.4,8.7
		c-11.2,0.4-20.6-1.9-28.4-7c-7.9-5.1-13.8-12.1-17.6-20.8c-3.8-8.7-5.9-18.2-5.9-28.4c0-10.2,1.9-19.7,5.9-28.6
		c3.8-8.9,9.6-15.9,17.6-21.4c7.8-5.3,17.4-7.9,28.4-7.8c8.3,0,15.5,1.7,21.9,4.7c6.4,3,11.5,7.2,15.5,12.3c4,5.1,7,11,9.1,17.8
		C605.4,144.1,606.3,151.3,606.3,158.6z M579.7,159c0-4.2-0.6-7.9-1.5-11.3s-2.5-6.4-4.3-8.9c-1.9-2.5-4.3-4.5-7.2-5.9
		c-2.8-1.3-6.2-2.1-10-2.1c-7.2,0-13,2.6-17.2,7.9c-4.2,5.3-6.2,12.3-6.2,20.8s2.1,15.5,6.4,20.6c4.2,5.1,9.8,7.8,17.2,7.6
		c4.9-0.2,9.1-1.5,12.7-4c3.4-2.5,6.1-5.9,7.8-10.2C578.7,169.4,579.7,164.5,579.7,159z"/>
	<path fill="#3D261F" d="M679.7,132.9l-27.2,78.5l-15.9,0.6L609,133.3l23.6-0.2l12.7,41l14-41.2H679.7z"/>
	<path fill="#3D261F" d="M741,176.8l-40.1,0.9c0.8,4.7,2.8,8.3,5.9,11.3c3,2.8,6.6,4.2,10.4,4.2c6.8-0.2,14.2-3,22.3-8.3v16.5
		c-2.8,2.1-6.4,4.2-10.6,5.9c-4.2,1.9-9.5,2.8-16.1,3c-7,0.2-13.2-1.3-18.2-4.5c-5.1-3.4-8.9-7.9-11.3-14
		c-2.5-6.1-3.8-12.9-3.8-20.6c0-7.6,1.3-14.4,3.8-20.4c2.5-6.1,6.2-10.8,11.3-14.2c5.1-3.4,11.2-5.1,18.2-5.1c4.7,0,9.1,1.3,13.4,4
		c4.3,2.6,7.8,7,10.6,12.9c2.6,5.9,4.2,13.6,4.2,23.1L741,176.8L741,176.8z M722.3,163.9c0-4.9-0.9-8.7-2.6-11.5
		c-1.9-2.8-4.3-4.3-7.8-4.3c-3.4,0-6.1,1.5-8.3,4.5c-2.1,3-3.2,7-3.2,11.7L722.3,163.9z"/>
	<path fill="#3D261F" d="M795.7,136.5l-7,26.1c-2.8-3.8-5.9-5.5-8.7-5.5c-2.6,0-5.1,1.3-7,3.8c-1.9,2.5-3.8,7.2-5.7,14v32l-19.5,0.8
		v-74.9h19.5v18c1.1-4.3,3.4-8.7,6.4-13c3-4.2,6.6-6.2,10.8-6.2c2.1,0,4,0.4,5.7,1.3C791.7,133.5,793.6,134.8,795.7,136.5z"/>
</g>
</svg>
