<?xml version="1.0" encoding="utf-8"?>
<!-- Generator: Adobe Illustrator 18.1.1, SVG Export Plug-In . SVG Version: 6.00 Build 0)  -->
<svg version="1.1" id="Layer_1" xmlns="http://www.w3.org/2000/svg" xmlns:xlink="http://www.w3.org/1999/xlink" x="0px" y="0px"
	 viewBox="0 134.6 800 672.8" enable-background="new 0 134.6 800 672.8" xml:space="preserve">
<path fill="#739571" d="M763.4,465.4l-718.9-3.8c-14.8,0-26.8-12.2-26.8-26.8v-48.6c0-14.6,12-26.8,26.8-27.2l718.9-12.7
	c20-0.3,36.6,13.4,36.6,30.6v57.1C800,451.6,783.5,465.6,763.4,465.4z"/>
<path fill="#739571" d="M675.5,322.6l-5.7-5c-1.6-1.4-2.1-1.7-2.1-11v-2.4v-43c0-12.9,0-27.5-10.1-42c-9.9-14.1-24.4-21.4-42.8-21.8
	h-0.9c-2.6,0-4.5,0.2-8,0.5v-1l-21.6-0.3l-3.3,1.9c-3.1,1.6-4.9,1.7-6.8,1.7l-27.5-0.2v-3.8h-0.2c0.5-2.8,1-5.7,1-8.7
	c0-22.5-16.9-41.3-37.4-42c-0.3,0-0.7,0-1,0c-9.7,0-18.5,3.8-25.1,10.3V144l-21.2-0.7l-3.3,1.4c-3.8,1.6-7.3,2.3-11.8,2.3
	c-0.5,0-1,0-1.4,0l-44-1v25.2l4.2,4.9c3.1,3.7,3.1,3.8,3.1,14.3l-0.3,3v31.9c-2.8-3.8-5.7-7.3-9.1-10.4
	c-13.9-13.4-32-20.2-54.1-20.5h-1.2c-29.8,0-53.8,13.4-67.9,35.3v-36.7h-0.7c0.9-3.5,1.4-7.3,1.4-11.1c0-23.7-18.6-43.5-41.4-44.2
	c-0.3,0-0.9,0-1.2,0c-5.6,0-11,1-15.7,3.1l-83.4-2.1v28.2l7.8,5.2c4.2,2.8,4,3.5,4,4.5c0,1.9-1.4,6.1-2.4,9.2l-0.7,2.1L128,240.5
	l-18.8-56.1c-0.3-1.4-1-3-1.6-4.5c-1.6-4.7-5.7-16.7-6.4-21.9l-0.2-1v-19.5L0,134.6v26.1l5.6,5c4.9,4.7,7.3,9.6,10.6,19.3l44.4,124
	c6.6,18.1,12.7,31,33.8,43.4c11.3,6.8,23.9,10.4,35,13.9c1.4,0.3,2.8,0.9,4.2,1.2l16.5,5l46.3-141.2c0.3,1.9,0.3,4.7,0.3,10.3v2.8
	V312l0.2,2.8c0,11-0.2,11.7-3.5,14.8l-5.4,5.2v26.5l97.5-2.8V338c13.8,14.1,33.3,22.5,56.1,22.5c0.9,0,1.7,0,2.6,0
	c23.9-0.7,43.7-9.4,58-23.9v18.8l90.5-2.4l0,0l62.7-1.7l0,0l120.1-3.3V322.6z"/>
<path fill="#3D261F" d="M136.7,357.8c-1.4-0.3-2.8-0.9-4.2-1.2c-11-3.3-22.5-6.8-32.6-12.9c-17.6-10.3-22.6-20-29.2-38L26.1,182
	c-3.3-9.6-6.4-16.9-13.2-23.7l-2.4-1.9v-11l80.1,2.3v8.4v1.4c0.3,6.1,4.7,18.8,7.1,25.8c0.5,1.7,1.2,3.3,1.6,4.5l29.1,86.4
	l26.3-83.4l0.7-1.9c1.4-4.2,3-8.9,3-12.5c0-5.6-2.3-9.1-8.9-13.4l-3.1-1.9v-11.8l62.7,1.7v8.7l-65.6,200.2L136.7,357.8z"/>
<path fill="#3D261F" d="M198.5,339.3l1.9-2.1c7.1-6.6,7-11.5,7-22.5l-0.2-2.6v-67.6v-2.8c0-11.1,0.2-16-6.6-22.3l-2.1-2.1v-11
	l16,0.2c-6.6-6.3-11-15.1-11-24.5c0-19.2,13.8-34.1,31.3-34.1c0.3,0,0.5,0,0.9,0c17.2,0.5,31.2,15.7,31.2,33.8
	c0,8.2-2.6,15.5-7.1,21.2h6.6v108.1v2.6c0,10.8-0.2,15.7,6.4,21.6l2.3,2.1v10.8l-76.6,2.1L198.5,339.3L198.5,339.3z"/>
<path fill="#3D261F" d="M341.6,350c-39.9,0-67.9-29.2-67.9-71c0-43.7,29.2-74.2,71-74.2h1c19.3,0.2,35.2,6.3,47,17.6
	c13.4,12.5,21.8,32.7,21.8,52.8c0,43.5-28.4,73.5-70.7,74.7C343.2,350,342.5,350,341.6,350z M344.7,244.5c-10.4,0-14.6,9.1-14.6,27
	c0,39.3,12.2,39.3,16.2,39.3h0.3c6.6-0.2,14.1-3.7,14.1-29.6C360.7,270.1,359.2,244.6,344.7,244.5v-7V244.5z"/>
<path fill="#3D261F" d="M412.6,333.6l1.9-2.1c5.9-5.9,5.6-10.6,5.6-20.9l-0.3-2.6V193.1l0.3-3c0-10.8,0.2-14.5-5.7-21.2l-1.6-1.9
	v-10.6l33.1,0.9c0.5,0,1.2,0,1.7,0c6.1,0,10.8-0.9,15.8-3.1l1.2-0.5l8.9,0.3v153.2l0.2,2.6c0,10.1,0.3,14.6,6.1,20l2.6,2.1v10.4
	l-69.6,1.9v-10.6H412.6z"/>
<path fill="#3D261F" d="M477,331.9l1.9-2.1c5.9-5.9,5.4-10.4,5.4-20.4L484,307v-61.8l0.3-2.6c0-11,0-15-5.4-20.2l-1.9-2.1v-10.8
	l13.1,0.2c-5.2-5.7-8.5-13.6-8.5-21.9c0-17.9,12-31.9,27.5-31.9c0.2,0,0.5,0,0.7,0c15.1,0.5,27.3,14.6,27.3,31.5
	c0,7.1-2.3,13.8-5.9,19h4.9v99.8l0.2,2.4c0,9.7,0.3,14.3,5.9,19.5l2.6,2.1v10.4l-67.9,1.9v-10.6H477z"/>
<path fill="#3D261F" d="M538,330.1l2.1-2.1c5.6-5.4,5.2-9.9,5-19.8l-0.3-2.4v-60.4l0.3-2.4c0-9.7,0.2-14.3-5.4-19.8l-1.9-2.1v-10.6
	l36,0.3c4,0,7.3-0.9,11.5-2.8l1-0.7l8.9,0.2v4.9c5.2-2.8,11.7-4.2,18.5-4.2h0.9c14.8,0.2,26.5,5.9,34.5,17.2
	c8.2,11.7,8.2,23.3,8.2,35.9v45.4c0,10.3,0.7,14.1,5.4,18.6l2.6,2.1v10.4l-63.7,1.7l-63.4,1.7v-11.1H538z M601.5,247.1
	c-1,0-2.4,0.9-3.3,2.3l-0.5,0.3c-1.7,2.8-2.1,8-2.1,12.4v43.2l0.3,2.4c0,10.4,0.3,14.3,5.4,19l0.9,0.7l0.9-0.9c5-5,5-8.9,4.9-19.3
	l-0.3-2.4v-41.8c0-4.7,0-9.2-1.7-12.2v-0.2v-0.2C604.8,248.3,603.4,247.1,601.5,247.1z"/>
<g>
	<path fill="#E2E4E5" d="M161.2,192.8c1.6-5,3.8-11.1,3.8-16.5c0-9.4-5.2-14.6-12-19.2v-0.9l48.6,1.4v0.9l-63,192.6
		c-12-3.7-24.5-7.1-35.3-13.4c-15.7-9.2-20-17.2-26.3-34.5L32.7,179.5c-3.5-10.4-6.8-18.6-14.5-26.1v-0.9l66,1.9v0.9l-0.3,1.4
		c0,8.2,6.3,25.2,8.9,33.3l35.9,106.6L161.2,192.8z"/>
	<path fill="#E2E4E5" d="M241,214c7,0,12.7-0.7,17.6-4h0.7v101.2c0,12.7-0.7,20.9,9.1,29.4v0.9l-63.7,1.7v-0.9
		c10.1-9.2,9.4-17.4,9.4-30.3v-67.4c0-13.2,0.9-21.4-9.1-30.1v-0.9L241,214z M210.5,182.1c0-15.1,10.6-27.5,25.1-27.2
		c13.6,0.3,24.4,12.7,24.4,26.8c0,15.3-11.3,26.8-25.6,26.6C221.5,208.1,210.5,195.5,210.5,182.1z"/>
	<path fill="#E2E4E5" d="M280.8,278.9c0-42.1,27.9-67.7,64.9-67.2c15.7,0.2,30.6,4.4,42.3,15.7c12.4,11.5,19.7,29.8,19.7,47.9
		c0,41.8-27.2,66.7-63.9,67.7C308.3,343.9,280.8,319.7,280.8,278.9z M367.7,281c0-16.7-3.1-43.5-22.8-43.5
		c-17.6,0-21.8,17.9-21.8,33.9c0,18.3,1.9,46.7,23.7,46.3C365.3,317.4,367.7,296.9,367.7,281z"/>
	<path fill="#E2E4E5" d="M445.7,164.5c8,0.2,14.1-0.9,20.5-3.7h0.7v146.6c0,12-0.7,19.5,7.7,27.5v0.7l-55.4,1.6v-0.7
		c8.7-8.7,8-16.2,8-28.4V193.1c0-13.2,0.7-19.2-7.5-28.6v-0.9L445.7,164.5z"/>
	<path fill="#E2E4E5" d="M514.1,217c5.9,0,10.8-0.7,14.8-3.7h0.7v93c0,11.7-0.7,19.2,7.7,27v0.7l-53.6,1.4v-0.5
		c8.5-8.5,7.8-16,7.8-27.9v-61.8c0-12.2,0.7-19.5-7.7-27.7v-0.7L514.1,217z M488.5,187.9c0-13.9,8.9-25.2,21.1-24.9
		c11.5,0.3,20.5,11.5,20.5,24.5c0,13.9-9.6,24.5-21.4,24.4C497.8,211.7,488.5,200.2,488.5,187.9z"/>
	<path fill="#E2E4E5" d="M589.2,227.9c6.1-9.2,15-13.1,25.4-12.9c11,0.2,21.2,3.7,28.7,14.3s6.8,21.6,6.8,34.5v40.4
		c0,11.5-0.5,18.6,7,25.9v0.7l-49.3,1.4v-0.9c7.8-7.8,7.1-15,7.1-26.6v-41.8c0-5.4,0-11.1-3-15.8c-2.3-4.5-6.4-7-10.8-7
		c-3.5,0-7.3,2.3-9.4,5.7c-3.1,4.7-3,11.7-3,17.2v42.1c0,11.7-0.7,19,7.3,26.5v0.7l-51.4,1.4v-0.7c8.2-8,7.5-15.3,7.5-27.2v-60.6
		c0-11.7,0.7-19-7.5-27.2v-0.7l28.6,0.3c5,0,9.4-0.9,15-3.7h0.7v13.8H589.2z"/>
</g>
<path fill="#3D261F" d="M89.7,387.2c-1.6-1.6-3.5-2.8-6.1-3.8c-2.6-0.9-5.6-1.4-8.9-1.2l-25.9,0.7v51.9l15.7-0.2v-19.7l10.3-0.2
	c3.5,0,6.4-0.7,8.9-1.7c2.6-1,4.5-2.4,6.1-4c1.6-1.6,2.6-3.3,3.3-5.2c0.7-1.9,1-3.8,1-5.7s-0.3-3.8-1-5.7
	C92.3,390.5,91.2,388.8,89.7,387.2z M76.8,402.4c-0.7,0.9-1.7,1.6-3.1,1.9c-1.4,0.3-3.3,0.5-5.9,0.7h-3.3v-12.5h3.3
	c3.8-0.2,6.4,0.3,7.8,1.2s2.3,2.6,2.3,5C77.8,400.3,77.5,401.5,76.8,402.4z"/>
<polygon fill="#3D261F" points="99.2,434.1 113.2,433.9 113.2,381.1 99.2,381.5 "/>
<path fill="#3D261F" d="M157,424.1c-0.3-0.7-0.3-1.7-0.3-3.1v-15.1c0-3.8-1.6-6.8-4.4-8.9c-3-2.1-7.3-3.1-13.1-3
	c-2.3,0-4.5,0.3-6.8,0.7c-2.3,0.3-4.5,1-6.6,1.9c-2.1,0.9-4,1.9-5.7,3.1v10.4c1.7-2.1,4.7-3.8,7.3-5.2c2.6-1.4,5.6-2.1,8.7-2.1
	c2.6,0,4.4,0.5,5,1.6c0.7,1,1.2,2.6,1.2,4.4c-0.5,0.3-1,0.5-1.6,0.7c-0.5,0.2-1.2,0.5-2.3,0.9s-2.4,0.9-4.4,1.4
	c-3.5,1.2-6.1,2.3-8.2,3.3c-2.1,1-3.7,2.3-4.9,3.8c-1.2,1.6-1.9,3.5-1.9,5.9c0,1.6,0.3,3.1,1,4.5s1.9,2.6,3.7,3.7
	c1.7,0.9,4.2,1.4,7,1.4c3,0,5.4-0.5,7.3-1.2c1.9-0.9,3.5-1.7,5-3c0.3,1.2,1,2.1,1.9,3s2.6,1.2,4.9,1.2c2.4,0,4.5-0.3,6.3-0.9
	c1.7-0.5,3.8-1.2,5.6-1.9v-7.3c-1.7,0.7-2.6,1.2-3.5,1.2C157.7,425.2,157.4,424.8,157,424.1z M142.8,424c-1.7,0.7-2.1,1.4-3.1,1.9
	c-0.9,0.5-1.9,0.9-3,0.9c-1,0-1.9-0.3-2.8-1c-0.7-0.7-1.2-1.7-1.2-3c0-1.7,0.9-3.3,2.4-4.4s4-2.3,7.5-3.7v9.2H142.8z"/>
<polygon fill="#3D261F" points="184.7,413.2 176.5,393.7 161.2,394 177.1,427.8 166.1,450.9 180.5,450.8 208.2,393 194.1,393.3 "/>
<path fill="#3D261F" d="M244.3,420.7c-0.9-0.5-1.6-1.4-1.7-2.3c-0.2-0.9-0.5-2.1-0.5-3.7V402l13.9-0.3v-9.9l-13.9,0.3v-12h-1.4
	l-19.5,19.8v2.4l7-0.2V418c0,9.9,5,14.8,15.7,14.6c2.4,0,4.9-0.3,7.7-1c2.8-0.7,4.5-1.4,6.3-2.1v-11.1c-3.5,1.9-7,3-9.4,3
	C246.5,421.5,245.1,421.2,244.3,420.7z"/>
<path fill="#3D261F" d="M292.5,390.4c-2.8,0-5.6,0.5-8,1.6s-4.2,2.8-7.7,5.2v-20.4l-13.9,0.3v54.7l13.9-0.2v-23.7
	c1.7-1.9,2.8-3.3,4.4-4.5c1.4-1.2,3.1-1.9,5-1.9c2.4,0,4.2,0.7,5,2.3c0.9,1.6,1.4,3.3,1.4,5.2c0,0.5,0,0.9,0,0.9c0,0.2,0,0.3,0,0.5
	v20.9l15.7-0.2v-24.9C308.2,395.4,302.8,390,292.5,390.4z"/>
<path fill="#3D261F" d="M348,391.2c-3.3-1.4-6.8-1.9-10.3-1.9c-5.4,0.2-9.9,1-13.8,3c-3.8,1.9-6.6,4.4-8.4,7.7
	c-1.9,3.1-2.8,6.8-2.8,10.8s0.9,7.7,2.8,10.8c1.9,3.1,4.7,5.6,8.4,7.5c3.8,1.7,8.4,2.6,13.8,2.6c5,0,9.2-0.5,12.5-1.6
	c3.3-0.9,6.6-1.9,8.4-3.1v-9.1c-7,2.8-12.2,4.4-17.4,4.4c-3,0-5.7-0.7-8-2.3c-2.3-1.6-3.5-3.5-4-6.1l31.3-0.5v-3
	c0-5.2-1.6-9.4-3.7-12.5C354.6,394.9,351.3,392.6,348,391.2z M328.2,406.9c0-2.6,0.9-4.7,2.4-6.3c1.6-1.6,3.7-2.4,6.3-2.4
	s4.5,0.7,5.9,2.3c1.4,1.6,2.1,3.7,2.1,6.3L328.2,406.9z"/>
<polygon fill="#3D261F" points="428.3,409 419.2,388.1 409.1,388.4 400.3,409.5 392.1,388.8 376.1,389.1 394.2,430.1 404.1,429.9 
	414.2,407.1 424.3,429.7 434.6,429.5 452.7,387.4 436.3,387.7 "/>
<path fill="#3D261F" d="M490.6,387.9c-3.5-1.4-7.1-2.1-11-1.9c-5.7,0.2-10.6,1.2-14.6,3.1c-4,1.9-7,4.5-9.1,7.8c-1.9,3.3-3,7-3,11.1
	s1,7.8,3,11.1c1.9,3.3,5,5.9,9.1,7.7c4,1.9,8.9,2.8,14.6,2.8c5.4,0,9.6-0.5,13.1-1.6c3.5-1,7-2.1,8.7-3.3v-9.2
	c-7,3-12.9,4.5-18.5,4.5c-3.1,0-5.9-0.7-8.5-2.3c-2.4-1.6-3.8-3.7-4.5-6.3l33.3-0.5v-3c0-5.4-1.4-9.7-3.7-13.1
	C497.2,391.8,494.1,389.3,490.6,387.9z M469.4,404.3c0-2.6,0.9-4.9,2.6-6.4c1.7-1.7,3.8-2.6,6.6-2.6c2.8,0,4.9,0.7,6.4,2.3
	c1.6,1.6,2.3,3.7,2.3,6.4L469.4,404.3z"/>
<path fill="#3D261F" d="M552.3,417.9c-0.3-0.7-0.3-1.9-0.3-3.5v-16.5c0-4.2-1.9-7.5-5.4-9.7c-3.5-2.3-8.9-3.5-15.7-3.3
	c-2.8,0-5.4,0.3-8.2,0.9c-2.6,0.5-5,1.2-7.5,2.1s-4.9,2.1-6.6,3.5v11.5c1.7-2.3,5.4-4.2,8.5-5.7c3.1-1.6,6.4-2.3,10.3-2.4
	c3.1,0,5.2,0.5,6.1,1.6c0.9,1.2,1.4,2.8,1.4,4.9c-0.7,0.3-1.2,0.5-1.9,0.9c-0.5,0.2-1.6,0.5-2.8,0.9c-1.2,0.3-3,0.9-5.4,1.6
	c-4.2,1.2-7.5,2.4-9.9,3.7c-2.4,1-4.5,2.6-5.9,4.4c-1.4,1.7-2.3,3.8-2.3,6.4c0,1.7,0.3,3.3,1.2,5c0.9,1.6,2.3,3,4.5,4
	c2.1,1,4.9,1.6,8.4,1.6c3.7,0,6.4-0.5,8.7-1.4s4.2-1.9,6.1-3.3c0.5,1.2,1.2,2.3,2.4,3.1c1,0.9,3.1,1.2,5.9,1.2c3,0,5.7-0.3,7.8-0.9
	c2.1-0.5,3.7-1.2,7.1-2.3v-8c-1.7,0.9-3.5,1.2-4.5,1.2C553.5,419.1,552.6,418.7,552.3,417.9z M534.5,417.9c-1.7,0.9-2.3,1.6-3.5,2.1
	s-2.3,0.9-3.5,0.9s-2.3-0.3-3.1-1c-0.9-0.7-1.4-1.7-1.4-3.3c0-1.9,0.9-3.5,2.8-4.7c1.9-1.2,5.2-2.6,8.7-4L534.5,417.9L534.5,417.9z"
	/>
<path fill="#3D261F" d="M584.1,415.3c-1-0.7-1.9-1.4-2.1-2.4c-0.2-1-0.5-2.3-0.5-3.8v-13.8l17.4-0.3v-10.6l-17.4,0.3v-13.2h-1.6
	l-22.8,21.4v2.6l7-0.2v17.2c0,10.6,6.4,16,19,15.8c3,0,6.4-0.3,9.6-1.2c3.1-0.7,4.5-1.6,8-2.3v-12c-5.2,2.1-8.5,3.1-11.3,3.3
	C587.2,416.1,585.2,415.8,584.1,415.3z"/>
<path fill="#3D261F" d="M640.2,382.4c-3.1,0-5.7,0.7-8.7,1.7c-2.8,1-6.4,3-8.2,5.7v-21.9l-19.2,0.5v59l19.2-0.2v-25.6
	c0-1.9,2.8-3.7,4.5-5c1.7-1.4,3.5-2.1,5.7-2.1c2.8,0,4.7,0.7,5.7,2.4c1,1.7,1.6,3.7,1.6,5.7c0,0.5,0,0.9,0,1c0,0.2,0,0.3,0,0.5v22.6
	l17.4-0.2v-27C658.1,387.7,652.2,382,640.2,382.4z"/>
<path fill="#3D261F" d="M705.8,383c-3.8-1.4-8-2.1-12.2-2.1c-6.3,0.2-11.7,1.2-16,3.3c-4.4,2.1-7.7,4.9-9.9,8.2
	c-2.3,3.5-3.3,7.3-3.3,11.7c0,4.4,1,8.4,3.3,11.7c2.3,3.5,5.4,6.1,9.9,8c4.4,1.9,9.7,3,16,2.8c5.9,0,10.4-0.7,14.1-1.6
	c3.8-1,7.7-2.1,9.4-3.3v-9.7c-7,3.1-13.9,4.7-20,4.7c-3.5,0-6.4-0.7-9.2-2.4c-2.8-1.7-4.5-3.8-5.2-6.4l36.2-0.7v-3.1
	c0-5.6-1.2-10.1-3.7-13.6C712.8,387.1,709.6,384.6,705.8,383z M682.5,400.3c0-2.8,0.9-5,2.8-6.8c1.9-1.7,4.4-2.6,7.3-2.8
	c3.1,0,5.4,0.7,7,2.4c1.6,1.7,2.4,4,2.4,6.8L682.5,400.3z"/>
<path fill="#3D261F" d="M766.2,380.3c-1.6-0.5-3.5-0.7-5.6-0.7c-4,0.2-7.8,1.4-10.8,4c-3,2.6-4.9,5.2-6.6,8v-10.8l-17.4,0.3v44.6
	l17.4-0.2v-19.3c1.7-4.2,4-7,5.9-8.5c1.9-1.6,4.4-2.3,7-2.4c3,0,5.9,1,8.7,3.3l7-16C769.7,381.5,768,380.6,766.2,380.3z"/>
<g>
	<path fill="#3D261F" d="M294.1,602.9h-9.8c-1.9-1.5-3.8-3.2-5.8-5c-1.9-1.9-4-4.3-6.1-7.2c-2.1-2.9-3.9-6.3-5.3-10.1
		c-1.4-3.8-2.1-8-2.1-12.5c0-5.8,1.1-11.1,3.4-15.8c2.3-4.7,4.7-8.5,7.3-11.3c2.6-2.8,5.5-5.5,8.6-8.1h9.8c-2.8,3-5.2,5.9-7.2,8.6
		s-3.8,6.4-5.4,10.9c-1.6,4.5-2.4,9.7-2.4,15.5c0,5.9,0.8,11,2.4,15.5c1.6,4.5,3.4,8.1,5.4,10.7
		C288.8,596.9,291.2,599.8,294.1,602.9z"/>
	<path fill="#3D261F" d="M342.4,549.8c0,1.9-0.3,3.8-1,5.6c-0.7,1.8-1.7,3.5-3.2,5.1c-1.5,1.6-3.4,2.8-5.9,3.8
		c-2.5,1-5.4,1.5-8.8,1.5h-10.2V585h-15.5v-51.4h25.7c3.4,0,6.3,0.5,8.8,1.5c2.5,1,4.5,2.3,5.9,3.9c1.5,1.6,2.5,3.3,3.2,5.2
		C342,546,342.4,547.8,342.4,549.8z M326.6,549.8c0-2.4-0.7-4.1-2.2-5c-1.4-0.9-4-1.4-7.8-1.4h-3.3v12.4h3.3c2.6,0,4.6-0.2,5.9-0.5
		c1.4-0.3,2.4-0.9,3-1.8C326.3,552.7,326.6,551.5,326.6,549.8z"/>
	<path fill="#3D261F" d="M371,567.7c0,4.5-0.7,8.6-2.1,12.5c-1.4,3.9-3.2,7.3-5.3,10.3c-2.1,3-4.2,5.4-6.1,7.3
		c-2,1.9-3.9,3.6-5.7,5.1h-9.8c2.8-2.9,5.2-5.8,7.2-8.6c2-2.8,3.8-6.4,5.5-11c1.6-4.5,2.4-9.7,2.4-15.5c0-5.9-0.8-11-2.4-15.5
		c-1.6-4.5-3.4-8.1-5.4-10.7s-4.4-5.6-7.3-8.7h9.8c2.6,2,5.3,4.5,8.1,7.5s5.4,6.8,7.7,11.6C369.8,556.7,371,562,371,567.7z"/>
	<path fill="#3D261F" d="M424.8,549.8c0,1.9-0.3,3.8-1,5.6c-0.7,1.8-1.7,3.5-3.2,5.1c-1.5,1.6-3.4,2.8-5.9,3.8
		c-2.5,1-5.4,1.5-8.8,1.5h-10.2V585h-15.5v-51.4h25.7c3.4,0,6.3,0.5,8.8,1.5c2.5,1,4.5,2.3,5.9,3.9c1.5,1.6,2.5,3.3,3.2,5.2
		C424.4,546,424.8,547.8,424.8,549.8z M408.9,549.8c0-2.4-0.7-4.1-2.2-5c-1.4-0.9-4-1.4-7.8-1.4h-3.3v12.4h3.3
		c2.6,0,4.6-0.2,5.9-0.5c1.4-0.3,2.4-0.9,3-1.8C408.6,552.7,408.9,551.5,408.9,549.8z"/>
	<path fill="#3D261F" d="M445.2,585h-13.4v-51.4h13.4V585z"/>
	<path fill="#3D261F" d="M493.6,583.1c-2,0.8-3.8,1.4-5.4,1.9c-1.7,0.5-3.6,0.7-6,0.7c-2.2,0-3.7-0.4-4.6-1.2
		c-0.9-0.8-1.5-1.7-1.9-2.8c-1.4,1.2-3,2.1-4.8,2.9c-1.8,0.8-4.1,1.1-6.9,1.1c-2.7,0-5-0.5-6.7-1.4c-1.7-1-2.9-2.2-3.6-3.6
		c-0.7-1.4-1-2.9-1-4.5c0-2.3,0.6-4.2,1.8-5.8c1.2-1.5,2.8-2.8,4.7-3.7c2-1,4.6-2,7.9-3c1.9-0.6,3.3-1,4.2-1.4
		c1-0.3,1.7-0.5,2.1-0.7c0.5-0.2,1-0.4,1.5-0.7c0-1.8-0.4-3.3-1.1-4.3s-2.4-1.6-4.8-1.6c-2.9,0-5.6,0.6-8.1,1.9
		c-2.5,1.3-4.8,2.9-6.9,5v-10.2c1.7-1.2,3.5-2.2,5.4-2.9c1.9-0.8,3.9-1.3,6-1.7c2.1-0.4,4.2-0.6,6.4-0.6c5.5,0,9.6,1.1,12.3,3.2
		c2.8,2.1,4.1,5,4.1,8.7v14.6c0,1.4,0.1,2.4,0.4,3.1c0.3,0.7,0.7,1,1.4,1c0.8,0,2-0.4,3.4-1.1V583.1z M475,575.9V567
		c-3.2,1.3-5.5,2.4-6.9,3.5c-1.5,1-2.2,2.4-2.2,4.2c0,1.3,0.4,2.2,1.1,2.9c0.7,0.7,1.6,1,2.5,1c0.9,0,1.8-0.3,2.7-0.8
		C473.2,577.2,474.1,576.6,475,575.9z"/>
	<path fill="#3D261F" d="M538.3,547.3l-25.7,55h-13.5l10.4-22.1l-15-32.8h14.4l7.7,18.8l8.7-18.8H538.3z"/>
	<path fill="#3D261F" d="M155.5,702.9h-9.8c-1.9-1.5-3.8-3.2-5.8-5c-1.9-1.9-4-4.3-6.1-7.2c-2.1-2.9-3.9-6.3-5.3-10.1
		c-1.4-3.8-2.1-8-2.1-12.5c0-5.8,1.1-11.1,3.4-15.8c2.3-4.7,4.7-8.5,7.3-11.3c2.6-2.8,5.5-5.5,8.6-8.1h9.8c-2.8,3-5.2,5.9-7.2,8.6
		s-3.8,6.4-5.4,10.9c-1.6,4.5-2.4,9.7-2.4,15.5c0,5.9,0.8,11,2.4,15.5c1.6,4.5,3.4,8.1,5.4,10.7
		C150.3,696.9,152.7,699.8,155.5,702.9z"/>
	<path fill="#3D261F" d="M174.9,685h-15.5v-51.4h15.5V685z"/>
	<path fill="#3D261F" d="M207.9,667.7c0,4.5-0.7,8.6-2.1,12.5c-1.4,3.9-3.2,7.3-5.3,10.3c-2.1,3-4.2,5.4-6.1,7.3
		c-2,1.9-3.9,3.6-5.7,5.1h-9.8c2.8-2.9,5.2-5.8,7.2-8.6c2-2.8,3.8-6.4,5.5-11c1.6-4.5,2.4-9.7,2.4-15.5c0-5.9-0.8-11-2.4-15.5
		c-1.6-4.5-3.4-8.1-5.4-10.7s-4.4-5.6-7.3-8.7h9.8c2.6,2,5.3,4.5,8.1,7.5s5.4,6.8,7.7,11.6C206.7,656.7,207.9,662,207.9,667.7z"/>
	<path fill="#3D261F" d="M232.7,685h-15.5v-51.4h15.5V685z"/>
	<path fill="#3D261F" d="M283.9,685h-13.4v-20.4c0-2.1-0.3-3.9-1-5.4c-0.7-1.5-2.2-2.3-4.5-2.3c-1.1,0-2,0.2-2.9,0.6
		c-0.8,0.4-1.6,0.9-2.2,1.6c-0.7,0.6-1.2,1.3-1.7,1.9s-0.9,1.2-1.4,1.9V685h-13.4v-37.8h13.4v5.4c2.1-2.3,4.2-3.8,6.3-4.7
		c2.1-0.9,4.5-1.4,7.1-1.4c9.1,0,13.6,5.4,13.6,16.3V685z"/>
	<path fill="#3D261F" d="M321.4,674c0,3.5-1.3,6.3-3.8,8.4c-2.5,2.2-6.3,3.2-11.3,3.2c-2.8,0-5.3-0.3-7.5-0.8
		c-2.2-0.5-4.6-1.2-7.1-2.2v-9.5c2.3,1.3,4.2,2.3,5.9,2.9c1.7,0.7,3.5,1,5.5,1c3.3,0,5-0.9,5-2.7c0-0.6-0.2-1.2-0.7-1.7
		s-1.3-1-2.5-1.6c-1.2-0.6-2.8-1.3-4.8-2.2c-2.5-1.1-4.6-2.5-6.3-4.4c-1.7-1.8-2.6-4.1-2.6-6.7c0-1.9,0.6-3.7,1.7-5.4
		c1.2-1.7,2.9-3.1,5.2-4.2c2.3-1.1,5.1-1.7,8.4-1.7c0.8,0,1.8,0.1,3,0.2s2.8,0.4,4.6,0.9c1.9,0.5,3.6,1.1,5.3,2v9.2
		c-0.8-0.5-1.5-0.9-2-1.2c-0.5-0.3-1.2-0.7-2.1-1.1c-0.9-0.4-1.9-0.7-3.1-1.1c-1.2-0.3-2.4-0.5-3.7-0.5c-1.5,0-2.6,0.3-3.2,0.9
		c-0.6,0.6-0.9,1.2-0.9,1.8c0,0.6,0.3,1.2,0.9,1.7c0.6,0.5,1.9,1.2,4,2c3,1.1,5.3,2.3,7.1,3.5c1.8,1.2,3,2.5,3.8,4
		C321,670.4,321.4,672.1,321.4,674z"/>
	<path fill="#3D261F" d="M358.5,682.8c-1.4,0.7-3.3,1.3-5.7,1.9c-2.4,0.6-4.8,0.9-7,0.9c-9.6,0-14.4-4.7-14.4-14.1v-15.1h-6v-2.3
		l17.9-18.3h1.5v11.3h12.8v9.3h-12.8v12.1c0,1.4,0.1,2.5,0.3,3.4c0.2,0.9,0.7,1.6,1.5,2.2c0.8,0.6,2,0.9,3.7,0.9
		c2.1,0,4.9-0.9,8.4-2.7V682.8z"/>
	<path fill="#3D261F" d="M397.5,649.3l-4.9,13.4c-2-1.9-4.1-2.9-6.2-2.9c-1.9,0-3.5,0.6-4.9,1.9c-1.4,1.3-2.7,3.6-4,7.1V685h-13.4
		v-37.8h13.4v9.1c0.8-2.3,2.3-4.4,4.5-6.6c2.1-2.1,4.6-3.2,7.5-3.2c1.5,0,2.8,0.2,4,0.7C394.6,647.7,396,648.4,397.5,649.3z"/>
	<path fill="#3D261F" d="M440.5,685h-13.4v-5.4c-1.9,2-3.9,3.5-5.9,4.5s-4.6,1.5-7.5,1.5c-5.7,0-9.4-1.7-11.1-5
		c-1.7-3.3-2.5-7.1-2.5-11.3v-22.2h13.4v20.4c0,2.1,0.3,3.9,1,5.4c0.7,1.5,2.2,2.3,4.4,2.3c2,0,3.5-0.6,4.7-1.7
		c1.1-1.1,2.3-2.5,3.5-4.3v-22.2h13.4V685z"/>
	<path fill="#3D261F" d="M481.4,683.3c-1.1,0.4-2.3,0.8-3.5,1.2c-1.2,0.4-2.6,0.7-4.2,0.9c-1.5,0.2-3.2,0.4-5.1,0.4
		c-4.1,0-7.6-0.7-10.5-2.1c-2.9-1.4-5.1-3.2-6.6-5.3c-1.5-2.1-2.6-4.3-3.2-6.5c-0.6-2.2-0.9-4.1-0.9-5.8c0-1.7,0.3-3.6,0.9-5.8
		c0.6-2.2,1.7-4.3,3.2-6.4c1.5-2.1,3.7-3.8,6.5-5.2c2.9-1.4,6.4-2.1,10.6-2.1c2.8,0,5.1,0.2,6.8,0.6c1.8,0.4,3.5,0.9,5.3,1.6v10.5
		c-4.4-1.4-7.8-2.1-10.2-2.1c-2.4,0-4.5,0.7-6.3,2.2c-1.8,1.4-2.8,3.7-2.8,6.7c0,2,0.5,3.7,1.4,5.1c0.9,1.4,2.1,2.4,3.5,3
		c1.4,0.6,2.8,1,4.2,1c1.3,0,2.9-0.2,4.6-0.6c1.7-0.4,3.8-1,6.2-1.7V683.3z"/>
	<path fill="#3D261F" d="M517.7,682.8c-1.4,0.7-3.3,1.3-5.7,1.9c-2.4,0.6-4.8,0.9-7,0.9c-9.6,0-14.4-4.7-14.4-14.1v-15.1h-6v-2.3
		l17.9-18.3h1.5v11.3h12.8v9.3H504v12.1c0,1.4,0.1,2.5,0.3,3.4c0.2,0.9,0.7,1.6,1.5,2.2c0.8,0.6,2,0.9,3.7,0.9
		c2.1,0,4.9-0.9,8.4-2.7V682.8z"/>
	<path fill="#3D261F" d="M537.7,685h-13.4v-37.8h13.4V685z M536.6,638.5c0,1.6-0.6,2.9-1.7,4c-1.1,1.1-2.4,1.6-4,1.6
		c-1,0-2-0.2-2.8-0.7c-0.9-0.5-1.5-1.2-2-2c-0.5-0.9-0.7-1.8-0.7-2.8c0-1.5,0.5-2.9,1.6-4c1.1-1.1,2.4-1.7,4-1.7
		c1.5,0,2.9,0.6,4,1.7S536.6,637,536.6,638.5z"/>
	<path fill="#3D261F" d="M588.6,666.1c0,3.8-0.8,7.1-2.4,10.1c-1.6,2.9-4.1,5.3-7.3,7c-3.3,1.7-7.2,2.6-11.9,2.6s-8.6-0.9-11.9-2.6
		c-3.3-1.7-5.7-4-7.3-7c-1.6-2.9-2.4-6.3-2.4-10.1c0-2.8,0.5-5.4,1.4-7.8c0.9-2.3,2.3-4.4,4.1-6.2c1.8-1.8,4.1-3.2,6.8-4.1
		c2.7-1,5.8-1.4,9.4-1.4c3.6,0,6.7,0.5,9.4,1.5c2.7,1,5,2.3,6.8,4.1c1.8,1.8,3.1,3.8,4.1,6.2C588.1,660.7,588.6,663.3,588.6,666.1z
		 M574.5,666.1c0-3-0.6-5.3-1.9-7c-1.3-1.7-3.2-2.5-5.7-2.5c-2.4,0-4.3,0.8-5.6,2.5c-1.3,1.7-1.9,4-1.9,7c0,3,0.7,5.3,2,7.1
		c1.3,1.7,3.2,2.6,5.6,2.6c2.5,0,4.4-0.9,5.7-2.6C573.9,671.5,574.5,669.1,574.5,666.1z"/>
	<path fill="#3D261F" d="M635.8,685h-13.4v-20.4c0-2.1-0.3-3.9-1-5.4c-0.7-1.5-2.2-2.3-4.5-2.3c-1.1,0-2,0.2-2.9,0.6
		c-0.8,0.4-1.6,0.9-2.2,1.6c-0.7,0.6-1.2,1.3-1.7,1.9s-0.9,1.2-1.4,1.9V685h-13.4v-37.8h13.4v5.4c2.1-2.3,4.2-3.8,6.3-4.7
		c2.1-0.9,4.5-1.4,7.1-1.4c9.1,0,13.6,5.4,13.6,16.3V685z"/>
	<path fill="#3D261F" d="M673.4,674c0,3.5-1.3,6.3-3.8,8.4c-2.5,2.2-6.3,3.2-11.3,3.2c-2.8,0-5.3-0.3-7.5-0.8
		c-2.2-0.5-4.6-1.2-7.1-2.2v-9.5c2.3,1.3,4.2,2.3,5.9,2.9c1.7,0.7,3.5,1,5.5,1c3.3,0,5-0.9,5-2.7c0-0.6-0.2-1.2-0.7-1.7
		s-1.3-1-2.5-1.6c-1.2-0.6-2.8-1.3-4.8-2.2c-2.5-1.1-4.6-2.5-6.3-4.4c-1.7-1.8-2.6-4.1-2.6-6.7c0-1.9,0.6-3.7,1.7-5.4
		c1.2-1.7,2.9-3.1,5.2-4.2c2.3-1.1,5.1-1.7,8.4-1.7c0.8,0,1.8,0.1,3,0.2s2.8,0.4,4.6,0.9c1.9,0.5,3.6,1.1,5.3,2v9.2
		c-0.8-0.5-1.5-0.9-2-1.2c-0.5-0.3-1.2-0.7-2.1-1.1c-0.9-0.4-1.9-0.7-3.1-1.1c-1.2-0.3-2.4-0.5-3.7-0.5c-1.5,0-2.6,0.3-3.2,0.9
		c-0.6,0.6-0.9,1.2-0.9,1.8c0,0.6,0.3,1.2,0.9,1.7c0.6,0.5,1.9,1.2,4,2c3,1.1,5.3,2.3,7.1,3.5c1.8,1.2,3,2.5,3.8,4
		C673,670.4,673.4,672.1,673.4,674z"/>
	<path fill="#3D261F" d="M300.7,802.9h-9.8c-1.9-1.5-3.8-3.2-5.8-5c-1.9-1.9-4-4.3-6.1-7.2c-2.1-2.9-3.9-6.3-5.3-10.1
		c-1.4-3.8-2.1-8-2.1-12.5c0-5.8,1.1-11.1,3.4-15.8c2.3-4.7,4.7-8.5,7.3-11.3c2.6-2.8,5.5-5.5,8.6-8.1h9.8c-2.8,3-5.2,5.9-7.2,8.6
		s-3.8,6.4-5.4,10.9c-1.6,4.5-2.4,9.7-2.4,15.5c0,5.9,0.8,11,2.4,15.5c1.6,4.5,3.4,8.1,5.4,10.7
		C295.4,796.9,297.8,799.8,300.7,802.9z"/>
	<path fill="#3D261F" d="M343.2,785h-38.8v-51.4h38.1v10.3H320v9.4h21.6v10.4H320v11h23.3V785z"/>
	<path fill="#3D261F" d="M373.6,767.7c0,4.5-0.7,8.6-2.1,12.5c-1.4,3.9-3.2,7.3-5.3,10.3c-2.1,3-4.2,5.4-6.1,7.3
		c-2,1.9-3.9,3.6-5.7,5.1h-9.8c2.8-2.9,5.2-5.8,7.2-8.6c2-2.8,3.8-6.4,5.5-11c1.6-4.5,2.4-9.7,2.4-15.5c0-5.9-0.8-11-2.4-15.5
		c-1.6-4.5-3.4-8.1-5.4-10.7s-4.4-5.6-7.3-8.7h9.8c2.6,2,5.3,4.5,8.1,7.5s5.4,6.8,7.7,11.6C372.5,756.7,373.6,762,373.6,767.7z"/>
	<path fill="#3D261F" d="M421.6,785h-38.8v-51.4H421v10.3h-22.6v9.4H420v10.4h-21.6v11h23.3V785z"/>
	<path fill="#3D261F" d="M471.9,785h-16.5l-7.3-10.7l-7.3,10.7h-14.6l14.6-18.6l-14.9-19.2h16.4l7,10.3l7.1-10.3H471l-14.3,17.9
		L471.9,785z"/>
	<path fill="#3D261F" d="M490.7,785h-13.4v-37.8h13.4V785z M489.6,738.5c0,1.6-0.6,2.9-1.7,4c-1.1,1.1-2.4,1.6-4,1.6
		c-1,0-2-0.2-2.8-0.7c-0.9-0.5-1.5-1.2-2-2c-0.5-0.9-0.7-1.8-0.7-2.8c0-1.5,0.5-2.9,1.6-4c1.1-1.1,2.4-1.7,4-1.7
		c1.5,0,2.9,0.6,4,1.7S489.6,737,489.6,738.5z"/>
	<path fill="#3D261F" d="M529.7,782.8c-1.4,0.7-3.3,1.3-5.7,1.9c-2.4,0.6-4.8,0.9-7,0.9c-9.6,0-14.4-4.7-14.4-14.1v-15.1h-6v-2.3
		l17.9-18.3h1.5v11.3h12.8v9.3h-12.8v12.1c0,1.4,0.1,2.5,0.3,3.4c0.2,0.9,0.7,1.6,1.5,2.2c0.8,0.6,2,0.9,3.7,0.9
		c2.1,0,4.9-0.9,8.4-2.7V782.8z"/>
</g>
</svg>
